<svg width="389" height="116" viewBox="0 0 389 116" fill="none" xmlns="http://www.w3.org/2000/svg">
<path d="M52.0972 103.362C57.4773 107.929 63.7204 109.723 71.3963 104.341C81.2956 97.334 89.7182 88.4461 96.1833 78.1846C100.465 71.4376 104.552 64.2613 106.586 56.4736C108.805 47.9593 107.21 41.7378 99.7833 36.406C87.0535 27.2586 67.3443 26.3517 52.1889 26.578C41.952 26.7298 28.4242 29.129 24.0519 39.8215C21.9439 44.9672 23.0662 50.8374 24.6181 56.1702C29.4569 72.9357 38.5355 91.8545 52.0972 103.362Z" fill="#EBE9E0"/>
<path d="M19.4379 36.2831C21.7297 31.0746 26.2249 27.9383 31.2938 26.1017C36.5171 24.2092 42.4491 23.6556 47.5084 23.6414C54.9372 23.6198 63.5297 23.8864 71.856 25.3009C80.1745 26.7142 88.301 29.2852 94.7511 33.9223L95.4443 34.4353C98.8299 37.0156 101.006 39.8436 102.083 43.0802C103.228 46.5231 103.086 50.3037 102.023 54.5331L102.023 54.5345C100.084 62.2308 96.0976 69.259 91.9795 75.772L91.9808 75.7718C85.7066 85.7697 77.4801 94.396 67.7714 101.158L67.7675 101.16C63.8858 103.837 60.2536 104.761 56.8409 104.353C53.4516 103.948 50.4135 102.245 47.6705 99.9256C34.4899 88.7811 25.4686 70.905 20.4144 54.8755L19.9373 53.3294C18.3559 48.1295 17.0805 42.1147 19.2232 36.7941L19.4379 36.2831Z" stroke="#EBE9E0" stroke-width="2"/>
<path d="M129.044 40.118C129.116 39.002 129.542 38.132 130.322 37.508C131.114 36.884 132.122 36.572 133.346 36.572C134.186 36.572 134.912 36.722 135.524 37.022C136.136 37.322 136.598 37.73 136.91 38.246C137.222 38.762 137.378 39.344 137.378 39.992C137.378 40.736 137.18 41.372 136.784 41.9C136.388 42.428 135.914 42.782 135.362 42.962V43.034C136.07 43.25 136.622 43.646 137.018 44.222C137.414 44.786 137.612 45.512 137.612 46.4C137.612 47.108 137.45 47.738 137.126 48.29C136.802 48.842 136.322 49.28 135.686 49.604C135.05 49.916 134.288 50.072 133.4 50.072C132.104 50.072 131.036 49.742 130.196 49.082C129.368 48.41 128.924 47.45 128.864 46.202H130.844C130.892 46.838 131.138 47.36 131.582 47.768C132.026 48.164 132.626 48.362 133.382 48.362C134.114 48.362 134.678 48.164 135.074 47.768C135.47 47.36 135.668 46.838 135.668 46.202C135.668 45.362 135.398 44.768 134.858 44.42C134.33 44.06 133.514 43.88 132.41 43.88H131.942V42.188H132.428C133.4 42.176 134.138 42.014 134.642 41.702C135.158 41.39 135.416 40.898 135.416 40.226C135.416 39.65 135.23 39.194 134.858 38.858C134.486 38.51 133.958 38.336 133.274 38.336C132.602 38.336 132.08 38.51 131.708 38.858C131.336 39.194 131.114 39.614 131.042 40.118H129.044ZM139.768 43.268C139.768 41.192 140.116 39.572 140.812 38.408C141.52 37.232 142.732 36.644 144.448 36.644C146.164 36.644 147.37 37.232 148.066 38.408C148.774 39.572 149.128 41.192 149.128 43.268C149.128 45.368 148.774 47.012 148.066 48.2C147.37 49.376 146.164 49.964 144.448 49.964C142.732 49.964 141.52 49.376 140.812 48.2C140.116 47.012 139.768 45.368 139.768 43.268ZM147.112 43.268C147.112 42.296 147.046 41.474 146.914 40.802C146.794 40.13 146.542 39.584 146.158 39.164C145.774 38.732 145.204 38.516 144.448 38.516C143.692 38.516 143.122 38.732 142.738 39.164C142.354 39.584 142.096 40.13 141.964 40.802C141.844 41.474 141.784 42.296 141.784 43.268C141.784 44.276 141.844 45.122 141.964 45.806C142.084 46.49 142.336 47.042 142.72 47.462C143.116 47.882 143.692 48.092 144.448 48.092C145.204 48.092 145.774 47.882 146.158 47.462C146.554 47.042 146.812 46.49 146.932 45.806C147.052 45.122 147.112 44.276 147.112 43.268ZM160.331 37.49C161.663 37.49 162.827 37.748 163.823 38.264C164.831 38.768 165.605 39.5 166.145 40.46C166.697 41.408 166.973 42.518 166.973 43.79C166.973 45.062 166.697 46.166 166.145 47.102C165.605 48.038 164.831 48.758 163.823 49.262C162.827 49.754 161.663 50 160.331 50H156.245V37.49H160.331ZM160.331 48.326C161.795 48.326 162.917 47.93 163.697 47.138C164.477 46.346 164.867 45.23 164.867 43.79C164.867 42.338 164.477 41.204 163.697 40.388C162.917 39.572 161.795 39.164 160.331 39.164H158.297V48.326H160.331ZM168.322 44.996C168.322 44 168.526 43.118 168.934 42.35C169.354 41.582 169.918 40.988 170.626 40.568C171.346 40.136 172.138 39.92 173.002 39.92C173.782 39.92 174.46 40.076 175.036 40.388C175.624 40.688 176.092 41.066 176.44 41.522V40.082H178.51V50H176.44V48.524C176.092 48.992 175.618 49.382 175.018 49.694C174.418 50.006 173.734 50.162 172.966 50.162C172.114 50.162 171.334 49.946 170.626 49.514C169.918 49.07 169.354 48.458 168.934 47.678C168.526 46.886 168.322 45.992 168.322 44.996ZM176.44 45.032C176.44 44.348 176.296 43.754 176.008 43.25C175.732 42.746 175.366 42.362 174.91 42.098C174.454 41.834 173.962 41.702 173.434 41.702C172.906 41.702 172.414 41.834 171.958 42.098C171.502 42.35 171.13 42.728 170.842 43.232C170.566 43.724 170.428 44.312 170.428 44.996C170.428 45.68 170.566 46.28 170.842 46.796C171.13 47.312 171.502 47.708 171.958 47.984C172.426 48.248 172.918 48.38 173.434 48.38C173.962 48.38 174.454 48.248 174.91 47.984C175.366 47.72 175.732 47.336 176.008 46.832C176.296 46.316 176.44 45.716 176.44 45.032ZM190.133 40.082L184.049 54.662H181.925L183.941 49.838L180.035 40.082H182.321L185.111 47.642L188.009 40.082H190.133ZM195.282 50.162C194.502 50.162 193.8 50.024 193.176 49.748C192.564 49.46 192.078 49.076 191.718 48.596C191.358 48.104 191.166 47.558 191.142 46.958H193.266C193.302 47.378 193.5 47.732 193.86 48.02C194.232 48.296 194.694 48.434 195.246 48.434C195.822 48.434 196.266 48.326 196.578 48.11C196.902 47.882 197.064 47.594 197.064 47.246C197.064 46.874 196.884 46.598 196.524 46.418C196.176 46.238 195.618 46.04 194.85 45.824C194.106 45.62 193.5 45.422 193.032 45.23C192.564 45.038 192.156 44.744 191.808 44.348C191.472 43.952 191.304 43.43 191.304 42.782C191.304 42.254 191.46 41.774 191.772 41.342C192.084 40.898 192.528 40.55 193.104 40.298C193.692 40.046 194.364 39.92 195.12 39.92C196.248 39.92 197.154 40.208 197.838 40.784C198.534 41.348 198.906 42.122 198.954 43.106H196.902C196.866 42.662 196.686 42.308 196.362 42.044C196.038 41.78 195.6 41.648 195.048 41.648C194.508 41.648 194.094 41.75 193.806 41.954C193.518 42.158 193.374 42.428 193.374 42.764C193.374 43.028 193.47 43.25 193.662 43.43C193.854 43.61 194.088 43.754 194.364 43.862C194.64 43.958 195.048 44.084 195.588 44.24C196.308 44.432 196.896 44.63 197.352 44.834C197.82 45.026 198.222 45.314 198.558 45.698C198.894 46.082 199.068 46.592 199.08 47.228C199.08 47.792 198.924 48.296 198.612 48.74C198.3 49.184 197.856 49.532 197.28 49.784C196.716 50.036 196.05 50.162 195.282 50.162ZM219.293 40.082L216.215 50H214.055L212.057 42.674L210.059 50H207.899L204.803 40.082H206.891L208.961 48.056L211.067 40.082H213.209L215.225 48.02L217.277 40.082H219.293ZM220.143 44.996C220.143 44 220.347 43.118 220.755 42.35C221.175 41.582 221.739 40.988 222.447 40.568C223.167 40.136 223.959 39.92 224.823 39.92C225.603 39.92 226.281 40.076 226.857 40.388C227.445 40.688 227.913 41.066 228.261 41.522V40.082H230.331V50H228.261V48.524C227.913 48.992 227.439 49.382 226.839 49.694C226.239 50.006 225.555 50.162 224.787 50.162C223.935 50.162 223.155 49.946 222.447 49.514C221.739 49.07 221.175 48.458 220.755 47.678C220.347 46.886 220.143 45.992 220.143 44.996ZM228.261 45.032C228.261 44.348 228.117 43.754 227.829 43.25C227.553 42.746 227.187 42.362 226.731 42.098C226.275 41.834 225.783 41.702 225.255 41.702C224.727 41.702 224.235 41.834 223.779 42.098C223.323 42.35 222.951 42.728 222.663 43.232C222.387 43.724 222.249 44.312 222.249 44.996C222.249 45.68 222.387 46.28 222.663 46.796C222.951 47.312 223.323 47.708 223.779 47.984C224.247 48.248 224.739 48.38 225.255 48.38C225.783 48.38 226.275 48.248 226.731 47.984C227.187 47.72 227.553 47.336 227.829 46.832C228.117 46.316 228.261 45.716 228.261 45.032ZM235.078 41.522C235.378 41.018 235.774 40.628 236.266 40.352C236.77 40.064 237.364 39.92 238.048 39.92V42.044H237.526C236.722 42.044 236.11 42.248 235.69 42.656C235.282 43.064 235.078 43.772 235.078 44.78V50H233.026V40.082H235.078V41.522ZM241.986 41.522C242.286 41.018 242.682 40.628 243.174 40.352C243.678 40.064 244.272 39.92 244.956 39.92V42.044H244.434C243.63 42.044 243.018 42.248 242.598 42.656C242.19 43.064 241.986 43.772 241.986 44.78V50H239.934V40.082H241.986V41.522ZM246.158 44.996C246.158 44 246.362 43.118 246.77 42.35C247.19 41.582 247.754 40.988 248.462 40.568C249.182 40.136 249.974 39.92 250.838 39.92C251.618 39.92 252.296 40.076 252.872 40.388C253.46 40.688 253.928 41.066 254.276 41.522V40.082H256.346V50H254.276V48.524C253.928 48.992 253.454 49.382 252.854 49.694C252.254 50.006 251.57 50.162 250.802 50.162C249.95 50.162 249.17 49.946 248.462 49.514C247.754 49.07 247.19 48.458 246.77 47.678C246.362 46.886 246.158 45.992 246.158 44.996ZM254.276 45.032C254.276 44.348 254.132 43.754 253.844 43.25C253.568 42.746 253.202 42.362 252.746 42.098C252.29 41.834 251.798 41.702 251.27 41.702C250.742 41.702 250.25 41.834 249.794 42.098C249.338 42.35 248.966 42.728 248.678 43.232C248.402 43.724 248.264 44.312 248.264 44.996C248.264 45.68 248.402 46.28 248.678 46.796C248.966 47.312 249.338 47.708 249.794 47.984C250.262 48.248 250.754 48.38 251.27 48.38C251.798 48.38 252.29 48.248 252.746 47.984C253.202 47.72 253.568 47.336 253.844 46.832C254.132 46.316 254.276 45.716 254.276 45.032ZM264.045 39.92C264.825 39.92 265.521 40.082 266.133 40.406C266.757 40.73 267.243 41.21 267.591 41.846C267.939 42.482 268.113 43.25 268.113 44.15V50H266.079V44.456C266.079 43.568 265.857 42.89 265.413 42.422C264.969 41.942 264.363 41.702 263.595 41.702C262.827 41.702 262.215 41.942 261.759 42.422C261.315 42.89 261.093 43.568 261.093 44.456V50H259.041V40.082H261.093V41.216C261.429 40.808 261.855 40.49 262.371 40.262C262.899 40.034 263.457 39.92 264.045 39.92ZM273.125 41.756V47.246C273.125 47.618 273.209 47.888 273.377 48.056C273.557 48.212 273.857 48.29 274.277 48.29H275.537V50H273.917C272.993 50 272.285 49.784 271.793 49.352C271.301 48.92 271.055 48.218 271.055 47.246V41.756H269.885V40.082H271.055V37.616H273.125V40.082H275.537V41.756H273.125ZM286.356 40.082L280.272 54.662H278.148L280.164 49.838L276.258 40.082H278.544L281.334 47.642L284.232 40.082H286.356Z" fill="#503217"/>
<path d="M135.936 80H129.552V68.576H135.936V69.84H130.992V73.408H135.648V74.656H130.992V78.736H135.936V80ZM142.379 71.264C143.403 71.264 144.176 71.5147 144.699 72.016C145.221 72.5067 145.483 73.3067 145.483 74.416V80H144.091V74.512C144.091 73.8187 143.936 73.3013 143.627 72.96C143.317 72.6187 142.832 72.448 142.171 72.448C141.221 72.448 140.565 72.7147 140.203 73.248C139.84 73.7813 139.659 74.5493 139.659 75.552V80H138.251V71.424H139.387L139.595 72.592H139.675C139.867 72.2933 140.101 72.048 140.379 71.856C140.667 71.6533 140.981 71.504 141.323 71.408C141.664 71.312 142.016 71.264 142.379 71.264ZM147.133 83.84C146.867 83.84 146.632 83.8187 146.429 83.776C146.227 83.744 146.051 83.7013 145.901 83.648V82.512C146.061 82.5547 146.227 82.592 146.397 82.624C146.568 82.656 146.755 82.672 146.957 82.672C147.299 82.672 147.581 82.576 147.805 82.384C148.029 82.2027 148.141 81.8507 148.141 81.328V71.424H149.549V81.28C149.549 81.8133 149.464 82.272 149.293 82.656C149.123 83.04 148.861 83.3333 148.509 83.536C148.157 83.7387 147.699 83.84 147.133 83.84ZM148.029 69.104C148.029 68.7947 148.109 68.5707 148.269 68.432C148.429 68.2827 148.627 68.208 148.861 68.208C149.075 68.208 149.261 68.2827 149.421 68.432C149.592 68.5707 149.677 68.7947 149.677 69.104C149.677 69.4027 149.592 69.6267 149.421 69.776C149.261 69.9253 149.075 70 148.861 70C148.627 70 148.429 69.9253 148.269 69.776C148.109 69.6267 148.029 69.4027 148.029 69.104ZM159.722 75.696C159.722 76.4107 159.626 77.0453 159.434 77.6C159.253 78.144 158.986 78.608 158.634 78.992C158.293 79.376 157.872 79.6693 157.37 79.872C156.88 80.064 156.33 80.16 155.722 80.16C155.157 80.16 154.634 80.064 154.154 79.872C153.674 79.6693 153.258 79.376 152.906 78.992C152.554 78.608 152.277 78.144 152.074 77.6C151.882 77.0453 151.786 76.4107 151.786 75.696C151.786 74.7467 151.946 73.9467 152.266 73.296C152.586 72.6347 153.045 72.1333 153.642 71.792C154.24 71.44 154.949 71.264 155.77 71.264C156.549 71.264 157.232 71.44 157.818 71.792C158.416 72.1333 158.88 72.6347 159.21 73.296C159.552 73.9467 159.722 74.7467 159.722 75.696ZM153.242 75.696C153.242 76.368 153.328 76.9547 153.498 77.456C153.68 77.9467 153.957 78.3253 154.33 78.592C154.704 78.8587 155.178 78.992 155.754 78.992C156.33 78.992 156.805 78.8587 157.178 78.592C157.552 78.3253 157.824 77.9467 157.994 77.456C158.176 76.9547 158.266 76.368 158.266 75.696C158.266 75.0133 158.176 74.432 157.994 73.952C157.813 73.472 157.536 73.104 157.162 72.848C156.8 72.5813 156.325 72.448 155.738 72.448C154.864 72.448 154.229 72.736 153.834 73.312C153.44 73.888 153.242 74.6827 153.242 75.696ZM160.297 71.424H161.801L163.657 76.304C163.764 76.592 163.86 76.8693 163.945 77.136C164.041 77.4027 164.127 77.664 164.201 77.92C164.276 78.1653 164.335 78.4053 164.377 78.64H164.441C164.505 78.3733 164.607 78.0267 164.745 77.6C164.884 77.1627 165.028 76.7253 165.177 76.288L166.921 71.424H168.441L164.745 81.184C164.543 81.7173 164.303 82.1813 164.025 82.576C163.759 82.9813 163.428 83.2907 163.033 83.504C162.649 83.728 162.18 83.84 161.625 83.84C161.369 83.84 161.145 83.824 160.953 83.792C160.761 83.7707 160.596 83.744 160.457 83.712V82.592C160.575 82.6133 160.713 82.6347 160.873 82.656C161.044 82.6773 161.22 82.688 161.401 82.688C161.732 82.688 162.015 82.624 162.249 82.496C162.495 82.3787 162.703 82.2027 162.873 81.968C163.044 81.744 163.188 81.4773 163.305 81.168L163.753 80.032L160.297 71.424ZM178.034 71.264C179.09 71.264 179.938 71.632 180.578 72.368C181.228 73.104 181.554 74.2133 181.554 75.696C181.554 76.6667 181.404 77.488 181.106 78.16C180.818 78.8213 180.407 79.3227 179.874 79.664C179.351 79.9947 178.732 80.16 178.018 80.16C177.58 80.16 177.191 80.1013 176.85 79.984C176.508 79.8667 176.215 79.7173 175.97 79.536C175.735 79.344 175.532 79.136 175.362 78.912H175.266C175.287 79.0933 175.308 79.3227 175.33 79.6C175.351 79.8773 175.362 80.1173 175.362 80.32V83.84H173.954V71.424H175.106L175.298 72.592H175.362C175.532 72.3467 175.735 72.1227 175.97 71.92C176.215 71.7173 176.503 71.5573 176.834 71.44C177.175 71.3227 177.575 71.264 178.034 71.264ZM177.778 72.448C177.202 72.448 176.738 72.56 176.386 72.784C176.034 72.9973 175.778 73.3227 175.618 73.76C175.458 74.1973 175.372 74.752 175.362 75.424V75.696C175.362 76.4 175.436 76.9973 175.586 77.488C175.735 77.9787 175.986 78.352 176.338 78.608C176.7 78.864 177.191 78.992 177.81 78.992C178.332 78.992 178.759 78.848 179.09 78.56C179.431 78.272 179.682 77.8827 179.842 77.392C180.012 76.8907 180.098 76.32 180.098 75.68C180.098 74.6987 179.906 73.9147 179.522 73.328C179.148 72.7413 178.567 72.448 177.778 72.448ZM187.11 71.264C187.846 71.264 188.475 71.424 188.998 71.744C189.531 72.064 189.936 72.5173 190.214 73.104C190.502 73.68 190.646 74.3573 190.646 75.136V75.984H184.774C184.795 76.9547 185.04 77.696 185.51 78.208C185.99 78.7093 186.656 78.96 187.51 78.96C188.054 78.96 188.534 78.912 188.95 78.816C189.376 78.7093 189.814 78.56 190.262 78.368V79.6C189.824 79.792 189.392 79.9307 188.966 80.016C188.539 80.112 188.032 80.16 187.446 80.16C186.635 80.16 185.915 79.9947 185.286 79.664C184.667 79.3333 184.182 78.8427 183.83 78.192C183.488 77.5307 183.318 76.7253 183.318 75.776C183.318 74.8373 183.472 74.032 183.782 73.36C184.102 72.688 184.544 72.1707 185.11 71.808C185.686 71.4453 186.352 71.264 187.11 71.264ZM187.094 72.416C186.422 72.416 185.888 72.6347 185.494 73.072C185.11 73.4987 184.88 74.096 184.806 74.864H189.174C189.174 74.3733 189.099 73.9467 188.95 73.584C188.8 73.2213 188.571 72.9387 188.262 72.736C187.963 72.5227 187.574 72.416 187.094 72.416ZM196.077 71.28C197.122 71.28 197.895 71.5093 198.397 71.968C198.898 72.4267 199.149 73.1573 199.149 74.16V80H198.125L197.853 78.784H197.789C197.543 79.0933 197.287 79.3547 197.021 79.568C196.765 79.7707 196.466 79.92 196.125 80.016C195.794 80.112 195.389 80.16 194.909 80.16C194.397 80.16 193.933 80.0693 193.517 79.888C193.111 79.7067 192.791 79.4293 192.557 79.056C192.322 78.672 192.205 78.192 192.205 77.616C192.205 76.7627 192.541 76.1067 193.213 75.648C193.885 75.1787 194.919 74.9227 196.317 74.88L197.773 74.832V74.32C197.773 73.6053 197.618 73.1093 197.309 72.832C196.999 72.5547 196.562 72.416 195.997 72.416C195.549 72.416 195.122 72.4853 194.717 72.624C194.311 72.752 193.933 72.9013 193.581 73.072L193.149 72.016C193.522 71.8133 193.965 71.6427 194.477 71.504C194.989 71.3547 195.522 71.28 196.077 71.28ZM196.493 75.856C195.426 75.8987 194.685 76.0693 194.269 76.368C193.863 76.6667 193.661 77.088 193.661 77.632C193.661 78.112 193.805 78.464 194.093 78.688C194.391 78.912 194.77 79.024 195.229 79.024C195.954 79.024 196.557 78.8267 197.037 78.432C197.517 78.0267 197.757 77.408 197.757 76.576V75.808L196.493 75.856ZM205.238 80.16C204.48 80.16 203.803 80.0053 203.206 79.696C202.619 79.3867 202.155 78.9067 201.814 78.256C201.483 77.6053 201.318 76.7733 201.318 75.76C201.318 74.704 201.494 73.8453 201.846 73.184C202.198 72.5227 202.672 72.0373 203.27 71.728C203.878 71.4187 204.566 71.264 205.334 71.264C205.771 71.264 206.192 71.312 206.598 71.408C207.003 71.4933 207.334 71.6 207.59 71.728L207.158 72.896C206.902 72.8 206.603 72.7093 206.262 72.624C205.92 72.5387 205.6 72.496 205.302 72.496C204.726 72.496 204.251 72.6187 203.878 72.864C203.504 73.1093 203.227 73.472 203.046 73.952C202.864 74.432 202.774 75.0293 202.774 75.744C202.774 76.4267 202.864 77.008 203.046 77.488C203.227 77.968 203.499 78.3307 203.862 78.576C204.224 78.8213 204.678 78.944 205.222 78.944C205.691 78.944 206.102 78.896 206.454 78.8C206.816 78.704 207.147 78.5867 207.446 78.448V79.696C207.158 79.8453 206.838 79.9573 206.486 80.032C206.144 80.1173 205.728 80.16 205.238 80.16ZM212.797 71.264C213.533 71.264 214.162 71.424 214.685 71.744C215.218 72.064 215.624 72.5173 215.901 73.104C216.189 73.68 216.333 74.3573 216.333 75.136V75.984H210.461C210.482 76.9547 210.728 77.696 211.197 78.208C211.677 78.7093 212.344 78.96 213.197 78.96C213.741 78.96 214.221 78.912 214.637 78.816C215.064 78.7093 215.501 78.56 215.949 78.368V79.6C215.512 79.792 215.08 79.9307 214.653 80.016C214.226 80.112 213.72 80.16 213.133 80.16C212.322 80.16 211.602 79.9947 210.973 79.664C210.354 79.3333 209.869 78.8427 209.517 78.192C209.176 77.5307 209.005 76.7253 209.005 75.776C209.005 74.8373 209.16 74.032 209.469 73.36C209.789 72.688 210.232 72.1707 210.797 71.808C211.373 71.4453 212.04 71.264 212.797 71.264ZM212.781 72.416C212.109 72.416 211.576 72.6347 211.181 73.072C210.797 73.4987 210.568 74.096 210.493 74.864H214.861C214.861 74.3733 214.786 73.9467 214.637 73.584C214.488 73.2213 214.258 72.9387 213.949 72.736C213.65 72.5227 213.261 72.416 212.781 72.416ZM230.128 75.696C230.128 76.4107 230.033 77.0453 229.841 77.6C229.659 78.144 229.393 78.608 229.041 78.992C228.699 79.376 228.278 79.6693 227.777 79.872C227.286 80.064 226.737 80.16 226.129 80.16C225.563 80.16 225.041 80.064 224.561 79.872C224.081 79.6693 223.665 79.376 223.312 78.992C222.961 78.608 222.683 78.144 222.481 77.6C222.289 77.0453 222.193 76.4107 222.193 75.696C222.193 74.7467 222.353 73.9467 222.673 73.296C222.993 72.6347 223.451 72.1333 224.049 71.792C224.646 71.44 225.355 71.264 226.177 71.264C226.955 71.264 227.638 71.44 228.225 71.792C228.822 72.1333 229.286 72.6347 229.617 73.296C229.958 73.9467 230.128 74.7467 230.128 75.696ZM223.649 75.696C223.649 76.368 223.734 76.9547 223.905 77.456C224.086 77.9467 224.363 78.3253 224.737 78.592C225.11 78.8587 225.585 78.992 226.161 78.992C226.737 78.992 227.211 78.8587 227.585 78.592C227.958 78.3253 228.23 77.9467 228.401 77.456C228.582 76.9547 228.673 76.368 228.673 75.696C228.673 75.0133 228.582 74.432 228.401 73.952C228.219 73.472 227.942 73.104 227.569 72.848C227.206 72.5813 226.731 72.448 226.145 72.448C225.27 72.448 224.635 72.736 224.241 73.312C223.846 73.888 223.649 74.6827 223.649 75.696ZM236.312 72.512H234.152V80H232.744V72.512H231.24V71.856L232.744 71.376V70.88C232.744 70.144 232.851 69.5467 233.064 69.088C233.288 68.6293 233.608 68.2933 234.024 68.08C234.44 67.8667 234.941 67.76 235.528 67.76C235.869 67.76 236.179 67.792 236.456 67.856C236.744 67.9093 236.989 67.9733 237.192 68.048L236.824 69.152C236.653 69.0987 236.456 69.0453 236.232 68.992C236.008 68.9387 235.779 68.912 235.544 68.912C235.075 68.912 234.723 69.072 234.488 69.392C234.264 69.7013 234.152 70.192 234.152 70.864V71.424H236.312V72.512ZM251.424 71.264C252.395 71.264 253.12 71.5147 253.6 72.016C254.08 72.5067 254.32 73.3067 254.32 74.416V80H252.928V74.48C252.928 73.808 252.784 73.3013 252.496 72.96C252.219 72.6187 251.782 72.448 251.184 72.448C250.352 72.448 249.755 72.688 249.392 73.168C249.04 73.648 248.864 74.3467 248.864 75.264V80H247.472V74.48C247.472 74.032 247.408 73.6587 247.28 73.36C247.152 73.0507 246.96 72.8213 246.704 72.672C246.448 72.5227 246.118 72.448 245.712 72.448C245.136 72.448 244.683 72.5707 244.352 72.816C244.022 73.0507 243.782 73.3973 243.632 73.856C243.494 74.3147 243.424 74.88 243.424 75.552V80H242.016V71.424H243.152L243.36 72.592H243.44C243.622 72.2933 243.84 72.048 244.096 71.856C244.363 71.6533 244.656 71.504 244.976 71.408C245.296 71.312 245.627 71.264 245.968 71.264C246.63 71.264 247.179 71.3813 247.616 71.616C248.064 71.8507 248.39 72.2133 248.592 72.704H248.672C248.96 72.2133 249.35 71.8507 249.84 71.616C250.342 71.3813 250.87 71.264 251.424 71.264ZM258.377 71.424V80H256.969V71.424H258.377ZM257.689 68.208C257.903 68.208 258.089 68.2827 258.249 68.432C258.42 68.5707 258.505 68.7947 258.505 69.104C258.505 69.4027 258.42 69.6267 258.249 69.776C258.089 69.9253 257.903 70 257.689 70C257.455 70 257.257 69.9253 257.097 69.776C256.937 69.6267 256.857 69.4027 256.857 69.104C256.857 68.7947 256.937 68.5707 257.097 68.432C257.257 68.2827 257.455 68.208 257.689 68.208ZM265.222 71.264C266.246 71.264 267.02 71.5147 267.542 72.016C268.065 72.5067 268.326 73.3067 268.326 74.416V80H266.934V74.512C266.934 73.8187 266.78 73.3013 266.47 72.96C266.161 72.6187 265.676 72.448 265.014 72.448C264.065 72.448 263.409 72.7147 263.046 73.248C262.684 73.7813 262.502 74.5493 262.502 75.552V80H261.094V71.424H262.23L262.438 72.592H262.518C262.71 72.2933 262.945 72.048 263.222 71.856C263.51 71.6533 263.825 71.504 264.166 71.408C264.508 71.312 264.86 71.264 265.222 71.264ZM274.025 80.16C272.958 80.16 272.105 79.792 271.465 79.056C270.825 78.3093 270.505 77.2 270.505 75.728C270.505 74.256 270.825 73.1467 271.465 72.4C272.116 71.6427 272.974 71.264 274.041 71.264C274.489 71.264 274.878 71.3227 275.209 71.44C275.54 71.5467 275.828 71.696 276.073 71.888C276.318 72.08 276.526 72.2933 276.697 72.528H276.793C276.782 72.3893 276.761 72.1867 276.729 71.92C276.708 71.6427 276.697 71.424 276.697 71.264V67.84H278.105V80H276.969L276.761 78.848H276.697C276.526 79.0933 276.318 79.3173 276.073 79.52C275.828 79.712 275.534 79.8667 275.193 79.984C274.862 80.1013 274.473 80.16 274.025 80.16ZM274.249 78.992C275.156 78.992 275.79 78.7467 276.153 78.256C276.526 77.7547 276.713 77.0027 276.713 76V75.744C276.713 74.6773 276.537 73.8613 276.185 73.296C275.833 72.72 275.182 72.432 274.233 72.432C273.476 72.432 272.905 72.736 272.521 73.344C272.148 73.9413 271.961 74.7467 271.961 75.76C271.961 76.784 272.148 77.5787 272.521 78.144C272.905 78.7093 273.481 78.992 274.249 78.992ZM290.521 75.152C290.457 74.928 290.393 74.7093 290.329 74.496C290.265 74.272 290.206 74.064 290.153 73.872C290.11 73.6693 290.068 73.4827 290.025 73.312C289.982 73.1413 289.95 72.9973 289.929 72.88H289.865C289.844 72.9973 289.812 73.1413 289.769 73.312C289.737 73.4827 289.694 73.6693 289.641 73.872C289.598 74.0747 289.545 74.288 289.481 74.512C289.428 74.7253 289.364 74.944 289.289 75.168L287.753 79.984H286.153L283.801 71.408H285.257L286.441 75.984C286.526 76.2933 286.606 76.608 286.681 76.928C286.756 77.2373 286.82 77.536 286.873 77.824C286.937 78.1013 286.98 78.3413 287.001 78.544H287.065C287.097 78.416 287.134 78.256 287.177 78.064C287.22 77.872 287.262 77.6693 287.305 77.456C287.358 77.2427 287.412 77.0293 287.465 76.816C287.529 76.6027 287.588 76.4107 287.641 76.24L289.161 71.408H290.697L292.169 76.24C292.244 76.4853 292.318 76.7467 292.393 77.024C292.478 77.3013 292.553 77.5733 292.617 77.84C292.681 78.096 292.724 78.3253 292.745 78.528H292.809C292.83 78.3467 292.868 78.1227 292.921 77.856C292.985 77.5787 293.054 77.28 293.129 76.96C293.214 76.6293 293.3 76.304 293.385 75.984L294.585 71.408H296.025L293.641 79.984H291.993L290.521 75.152ZM298.971 71.424V80H297.563V71.424H298.971ZM298.283 68.208C298.496 68.208 298.683 68.2827 298.843 68.432C299.014 68.5707 299.099 68.7947 299.099 69.104C299.099 69.4027 299.014 69.6267 298.843 69.776C298.683 69.9253 298.496 70 298.283 70C298.048 70 297.851 69.9253 297.691 69.776C297.531 69.6267 297.451 69.4027 297.451 69.104C297.451 68.7947 297.531 68.5707 297.691 68.432C297.851 68.2827 298.048 68.208 298.283 68.208ZM304.552 79.008C304.765 79.008 304.984 78.992 305.208 78.96C305.432 78.9173 305.613 78.8747 305.752 78.832V79.904C305.603 79.9787 305.389 80.0373 305.112 80.08C304.835 80.1333 304.568 80.16 304.312 80.16C303.864 80.16 303.448 80.0853 303.064 79.936C302.691 79.776 302.387 79.504 302.152 79.12C301.917 78.736 301.8 78.1973 301.8 77.504V72.512H300.584V71.84L301.816 71.28L302.376 69.456H303.208V71.424H305.688V72.512H303.208V77.472C303.208 77.9947 303.331 78.384 303.576 78.64C303.832 78.8853 304.157 79.008 304.552 79.008ZM308.877 71.408C308.877 71.6107 308.867 71.8187 308.845 72.032C308.835 72.2453 308.819 72.4373 308.797 72.608H308.893C309.075 72.3093 309.304 72.064 309.581 71.872C309.859 71.68 310.168 71.536 310.509 71.44C310.851 71.3333 311.203 71.28 311.565 71.28C312.259 71.28 312.835 71.392 313.293 71.616C313.763 71.8293 314.115 72.1653 314.349 72.624C314.584 73.0827 314.701 73.68 314.701 74.416V80H313.309V74.512C313.309 73.8187 313.155 73.3013 312.845 72.96C312.536 72.6187 312.051 72.448 311.389 72.448C310.749 72.448 310.248 72.5707 309.885 72.816C309.523 73.0507 309.261 73.4027 309.101 73.872C308.952 74.3307 308.877 74.896 308.877 75.568V80H307.469V67.84H308.877V71.408ZM327.052 75.152C326.988 74.928 326.924 74.7093 326.86 74.496C326.796 74.272 326.738 74.064 326.684 73.872C326.642 73.6693 326.599 73.4827 326.556 73.312C326.514 73.1413 326.482 72.9973 326.46 72.88H326.396C326.375 72.9973 326.343 73.1413 326.3 73.312C326.268 73.4827 326.226 73.6693 326.172 73.872C326.13 74.0747 326.076 74.288 326.012 74.512C325.959 74.7253 325.895 74.944 325.82 75.168L324.284 79.984H322.684L320.332 71.408H321.788L322.972 75.984C323.058 76.2933 323.138 76.608 323.212 76.928C323.287 77.2373 323.351 77.536 323.404 77.824C323.468 78.1013 323.511 78.3413 323.532 78.544H323.596C323.628 78.416 323.666 78.256 323.708 78.064C323.751 77.872 323.794 77.6693 323.836 77.456C323.89 77.2427 323.943 77.0293 323.996 76.816C324.06 76.6027 324.119 76.4107 324.172 76.24L325.692 71.408H327.228L328.7 76.24C328.775 76.4853 328.85 76.7467 328.924 77.024C329.01 77.3013 329.084 77.5733 329.148 77.84C329.212 78.096 329.255 78.3253 329.276 78.528H329.34C329.362 78.3467 329.399 78.1227 329.452 77.856C329.516 77.5787 329.586 77.28 329.66 76.96C329.746 76.6293 329.831 76.304 329.916 75.984L331.116 71.408H332.556L330.172 79.984H328.524L327.052 75.152ZM337.342 71.28C338.388 71.28 339.161 71.5093 339.662 71.968C340.164 72.4267 340.414 73.1573 340.414 74.16V80H339.39L339.118 78.784H339.054C338.809 79.0933 338.553 79.3547 338.286 79.568C338.03 79.7707 337.732 79.92 337.39 80.016C337.06 80.112 336.654 80.16 336.174 80.16C335.662 80.16 335.198 80.0693 334.782 79.888C334.377 79.7067 334.057 79.4293 333.822 79.056C333.588 78.672 333.47 78.192 333.47 77.616C333.47 76.7627 333.806 76.1067 334.478 75.648C335.15 75.1787 336.185 74.9227 337.582 74.88L339.038 74.832V74.32C339.038 73.6053 338.884 73.1093 338.574 72.832C338.265 72.5547 337.828 72.416 337.262 72.416C336.814 72.416 336.388 72.4853 335.982 72.624C335.577 72.752 335.198 72.9013 334.846 73.072L334.414 72.016C334.788 71.8133 335.23 71.6427 335.742 71.504C336.254 71.3547 336.788 71.28 337.342 71.28ZM337.758 75.856C336.692 75.8987 335.95 76.0693 335.534 76.368C335.129 76.6667 334.926 77.088 334.926 77.632C334.926 78.112 335.07 78.464 335.358 78.688C335.657 78.912 336.036 79.024 336.494 79.024C337.22 79.024 337.822 78.8267 338.302 78.432C338.782 78.0267 339.022 77.408 339.022 76.576V75.808L337.758 75.856ZM347.063 71.264C347.223 71.264 347.394 71.2747 347.575 71.296C347.767 71.3067 347.932 71.328 348.071 71.36L347.895 72.656C347.756 72.624 347.602 72.5973 347.431 72.576C347.271 72.5547 347.116 72.544 346.967 72.544C346.636 72.544 346.322 72.6133 346.023 72.752C345.724 72.8907 345.458 73.088 345.223 73.344C344.988 73.5893 344.802 73.888 344.663 74.24C344.535 74.592 344.471 74.9867 344.471 75.424V80H343.063V71.424H344.215L344.375 72.992H344.439C344.62 72.672 344.839 72.384 345.095 72.128C345.351 71.8613 345.644 71.6533 345.975 71.504C346.306 71.344 346.668 71.264 347.063 71.264ZM353.673 71.264C353.833 71.264 354.003 71.2747 354.185 71.296C354.377 71.3067 354.542 71.328 354.681 71.36L354.505 72.656C354.366 72.624 354.211 72.5973 354.041 72.576C353.881 72.5547 353.726 72.544 353.577 72.544C353.246 72.544 352.931 72.6133 352.633 72.752C352.334 72.8907 352.067 73.088 351.833 73.344C351.598 73.5893 351.411 73.888 351.273 74.24C351.145 74.592 351.081 74.9867 351.081 75.424V80H349.673V71.424H350.825L350.985 72.992H351.049C351.23 72.672 351.449 72.384 351.705 72.128C351.961 71.8613 352.254 71.6533 352.585 71.504C352.915 71.344 353.278 71.264 353.673 71.264ZM359.217 71.28C360.263 71.28 361.036 71.5093 361.537 71.968C362.039 72.4267 362.289 73.1573 362.289 74.16V80H361.265L360.993 78.784H360.929C360.684 79.0933 360.428 79.3547 360.161 79.568C359.905 79.7707 359.607 79.92 359.265 80.016C358.935 80.112 358.529 80.16 358.049 80.16C357.537 80.16 357.073 80.0693 356.657 79.888C356.252 79.7067 355.932 79.4293 355.697 79.056C355.463 78.672 355.345 78.192 355.345 77.616C355.345 76.7627 355.681 76.1067 356.353 75.648C357.025 75.1787 358.06 74.9227 359.457 74.88L360.913 74.832V74.32C360.913 73.6053 360.759 73.1093 360.449 72.832C360.14 72.5547 359.703 72.416 359.137 72.416C358.689 72.416 358.263 72.4853 357.857 72.624C357.452 72.752 357.073 72.9013 356.721 73.072L356.289 72.016C356.663 71.8133 357.105 71.6427 357.617 71.504C358.129 71.3547 358.663 71.28 359.217 71.28ZM359.633 75.856C358.567 75.8987 357.825 76.0693 357.409 76.368C357.004 76.6667 356.801 77.088 356.801 77.632C356.801 78.112 356.945 78.464 357.233 78.688C357.532 78.912 357.911 79.024 358.369 79.024C359.095 79.024 359.697 78.8267 360.177 78.432C360.657 78.0267 360.897 77.408 360.897 76.576V75.808L359.633 75.856ZM369.066 71.264C370.09 71.264 370.863 71.5147 371.386 72.016C371.909 72.5067 372.17 73.3067 372.17 74.416V80H370.778V74.512C370.778 73.8187 370.623 73.3013 370.314 72.96C370.005 72.6187 369.519 72.448 368.858 72.448C367.909 72.448 367.253 72.7147 366.89 73.248C366.527 73.7813 366.346 74.5493 366.346 75.552V80H364.938V71.424H366.074L366.282 72.592H366.362C366.554 72.2933 366.789 72.048 367.066 71.856C367.354 71.6533 367.669 71.504 368.01 71.408C368.351 71.312 368.703 71.264 369.066 71.264ZM377.693 79.008C377.906 79.008 378.125 78.992 378.349 78.96C378.573 78.9173 378.754 78.8747 378.893 78.832V79.904C378.743 79.9787 378.53 80.0373 378.253 80.08C377.975 80.1333 377.709 80.16 377.453 80.16C377.005 80.16 376.589 80.0853 376.205 79.936C375.831 79.776 375.527 79.504 375.293 79.12C375.058 78.736 374.941 78.1973 374.941 77.504V72.512H373.725V71.84L374.957 71.28L375.517 69.456H376.349V71.424H378.829V72.512H376.349V77.472C376.349 77.9947 376.471 78.384 376.717 78.64C376.973 78.8853 377.298 79.008 377.693 79.008ZM379.266 71.424H380.77L382.626 76.304C382.733 76.592 382.829 76.8693 382.914 77.136C383.01 77.4027 383.095 77.664 383.17 77.92C383.245 78.1653 383.303 78.4053 383.346 78.64H383.41C383.474 78.3733 383.575 78.0267 383.714 77.6C383.853 77.1627 383.997 76.7253 384.146 76.288L385.89 71.424H387.41L383.714 81.184C383.511 81.7173 383.271 82.1813 382.994 82.576C382.727 82.9813 382.397 83.2907 382.002 83.504C381.618 83.728 381.149 83.84 380.594 83.84C380.338 83.84 380.114 83.824 379.922 83.792C379.73 83.7707 379.565 83.744 379.426 83.712V82.592C379.543 82.6133 379.682 82.6347 379.842 82.656C380.013 82.6773 380.189 82.688 380.37 82.688C380.701 82.688 380.983 82.624 381.218 82.496C381.463 82.3787 381.671 82.2027 381.842 81.968C382.013 81.744 382.157 81.4773 382.274 81.168L382.722 80.032L379.266 71.424Z" fill="#8F7D6A"/>
</svg>
