<svg width="193" height="244" viewBox="0 0 193 244" fill="none" xmlns="http://www.w3.org/2000/svg">
<rect x="0.5" y="0.5" width="192" height="243" rx="10.5" stroke="#8F7D6A" stroke-opacity="0.1"/>
<rect x="38.5" y="25.5" width="116" height="116" rx="58" stroke="#503217" stroke-dasharray="2 2"/>
<rect x="45.5" y="32.5" width="102" height="102" rx="51" fill="#E2DFCF"/>
<path d="M77.75 83.5C77.75 76.5964 83.3464 71 90.25 71H96.5H102.75C109.654 71 115.25 76.5964 115.25 83.5C115.25 90.4036 109.654 96 102.75 96H96.5H90.25C83.3464 96 77.75 90.4036 77.75 83.5Z" fill="#E2DFCF" fill-opacity="0.18"/>
<path d="M96.5 71H90.25C83.3464 71 77.75 76.5964 77.75 83.5C77.75 90.4036 83.3464 96 90.25 96H96.5M96.5 71H102.75C109.654 71 115.25 76.5964 115.25 83.5C115.25 90.4036 109.654 96 102.75 96H96.5M96.5 71V96" stroke="#503217" stroke-width="2.5" stroke-linejoin="round"/>
<path d="M69.8932 168.49V181H67.8412V172.432L64.0252 181H62.6032L58.7692 172.432V181H56.7172V168.49H58.9312L63.3232 178.3L67.6972 168.49H69.8932ZM81.6802 175.798C81.6802 176.17 81.6562 176.506 81.6082 176.806H74.0302C74.0902 177.598 74.3842 178.234 74.9122 178.714C75.4402 179.194 76.0882 179.434 76.8562 179.434C77.9602 179.434 78.7402 178.972 79.1962 178.048H81.4102C81.1102 178.96 80.5642 179.71 79.7722 180.298C78.9922 180.874 78.0202 181.162 76.8562 181.162C75.9082 181.162 75.0562 180.952 74.3002 180.532C73.5562 180.1 72.9682 179.5 72.5362 178.732C72.1162 177.952 71.9062 177.052 71.9062 176.032C71.9062 175.012 72.1102 174.118 72.5182 173.35C72.9382 172.57 73.5202 171.97 74.2642 171.55C75.0202 171.13 75.8842 170.92 76.8562 170.92C77.7922 170.92 78.6262 171.124 79.3582 171.532C80.0902 171.94 80.6602 172.516 81.0682 173.26C81.4762 173.992 81.6802 174.838 81.6802 175.798ZM79.5382 175.15C79.5262 174.394 79.2562 173.788 78.7282 173.332C78.2002 172.876 77.5462 172.648 76.7662 172.648C76.0582 172.648 75.4522 172.876 74.9482 173.332C74.4442 173.776 74.1442 174.382 74.0482 175.15H79.5382ZM83.0156 175.996C83.0156 175 83.2196 174.118 83.6276 173.35C84.0476 172.582 84.6116 171.988 85.3196 171.568C86.0396 171.136 86.8376 170.92 87.7136 170.92C88.3616 170.92 88.9976 171.064 89.6216 171.352C90.2576 171.628 90.7616 172 91.1336 172.468V167.68H93.2036V181H91.1336V179.506C90.7976 179.986 90.3296 180.382 89.7296 180.694C89.1416 181.006 88.4636 181.162 87.6956 181.162C86.8316 181.162 86.0396 180.946 85.3196 180.514C84.6116 180.07 84.0476 179.458 83.6276 178.678C83.2196 177.886 83.0156 176.992 83.0156 175.996ZM91.1336 176.032C91.1336 175.348 90.9896 174.754 90.7016 174.25C90.4256 173.746 90.0596 173.362 89.6036 173.098C89.1476 172.834 88.6556 172.702 88.1276 172.702C87.5996 172.702 87.1076 172.834 86.6516 173.098C86.1956 173.35 85.8236 173.728 85.5356 174.232C85.2596 174.724 85.1216 175.312 85.1216 175.996C85.1216 176.68 85.2596 177.28 85.5356 177.796C85.8236 178.312 86.1956 178.708 86.6516 178.984C87.1196 179.248 87.6116 179.38 88.1276 179.38C88.6556 179.38 89.1476 179.248 89.6036 178.984C90.0596 178.72 90.4256 178.336 90.7016 177.832C90.9896 177.316 91.1336 176.716 91.1336 176.032ZM96.9428 169.768C96.5708 169.768 96.2588 169.642 96.0068 169.39C95.7548 169.138 95.6288 168.826 95.6288 168.454C95.6288 168.082 95.7548 167.77 96.0068 167.518C96.2588 167.266 96.5708 167.14 96.9428 167.14C97.3028 167.14 97.6088 167.266 97.8608 167.518C98.1128 167.77 98.2388 168.082 98.2388 168.454C98.2388 168.826 98.1128 169.138 97.8608 169.39C97.6088 169.642 97.3028 169.768 96.9428 169.768ZM97.9508 171.082V181H95.8988V171.082H97.9508ZM99.9609 176.032C99.9609 175.012 100.165 174.118 100.573 173.35C100.993 172.57 101.569 171.97 102.301 171.55C103.033 171.13 103.873 170.92 104.821 170.92C106.021 170.92 107.011 171.208 107.791 171.784C108.583 172.348 109.117 173.158 109.393 174.214H107.179C106.999 173.722 106.711 173.338 106.315 173.062C105.919 172.786 105.421 172.648 104.821 172.648C103.981 172.648 103.309 172.948 102.805 173.548C102.313 174.136 102.067 174.964 102.067 176.032C102.067 177.1 102.313 177.934 102.805 178.534C103.309 179.134 103.981 179.434 104.821 179.434C106.009 179.434 106.795 178.912 107.179 177.868H109.393C109.105 178.876 108.565 179.68 107.773 180.28C106.981 180.868 105.997 181.162 104.821 181.162C103.873 181.162 103.033 180.952 102.301 180.532C101.569 180.1 100.993 179.5 100.573 178.732C100.165 177.952 99.9609 177.052 99.9609 176.032ZM112.482 169.768C112.11 169.768 111.798 169.642 111.546 169.39C111.294 169.138 111.168 168.826 111.168 168.454C111.168 168.082 111.294 167.77 111.546 167.518C111.798 167.266 112.11 167.14 112.482 167.14C112.842 167.14 113.148 167.266 113.4 167.518C113.652 167.77 113.778 168.082 113.778 168.454C113.778 168.826 113.652 169.138 113.4 169.39C113.148 169.642 112.842 169.768 112.482 169.768ZM113.49 171.082V181H111.438V171.082H113.49ZM121.188 170.92C121.968 170.92 122.664 171.082 123.276 171.406C123.9 171.73 124.386 172.21 124.734 172.846C125.082 173.482 125.256 174.25 125.256 175.15V181H123.222V175.456C123.222 174.568 123 173.89 122.556 173.422C122.112 172.942 121.506 172.702 120.738 172.702C119.97 172.702 119.358 172.942 118.902 173.422C118.458 173.89 118.236 174.568 118.236 175.456V181H116.184V171.082H118.236V172.216C118.572 171.808 118.998 171.49 119.514 171.262C120.042 171.034 120.6 170.92 121.188 170.92ZM136.963 175.798C136.963 176.17 136.939 176.506 136.891 176.806H129.313C129.373 177.598 129.667 178.234 130.195 178.714C130.723 179.194 131.371 179.434 132.139 179.434C133.243 179.434 134.023 178.972 134.479 178.048H136.693C136.393 178.96 135.847 179.71 135.055 180.298C134.275 180.874 133.303 181.162 132.139 181.162C131.191 181.162 130.339 180.952 129.583 180.532C128.839 180.1 128.251 179.5 127.819 178.732C127.399 177.952 127.189 177.052 127.189 176.032C127.189 175.012 127.393 174.118 127.801 173.35C128.221 172.57 128.803 171.97 129.547 171.55C130.303 171.13 131.167 170.92 132.139 170.92C133.075 170.92 133.909 171.124 134.641 171.532C135.373 171.94 135.943 172.516 136.351 173.26C136.759 173.992 136.963 174.838 136.963 175.798ZM134.821 175.15C134.809 174.394 134.539 173.788 134.011 173.332C133.483 172.876 132.829 172.648 132.049 172.648C131.341 172.648 130.735 172.876 130.231 173.332C129.727 173.776 129.427 174.382 129.331 175.15H134.821Z" fill="#503217"/>
<path d="M71.7318 200.248C71.7318 200.76 71.6358 201.203 71.4438 201.576C71.2518 201.949 70.9744 202.253 70.6118 202.488C70.2598 202.723 69.8438 202.888 69.3638 202.984V203.048C70.2811 203.155 70.9638 203.443 71.4118 203.912C71.8598 204.381 72.0838 204.995 72.0838 205.752C72.0838 206.413 71.9291 207.005 71.6198 207.528C71.3104 208.04 70.8304 208.44 70.1798 208.728C69.5398 209.016 68.7131 209.16 67.6998 209.16C67.1024 209.16 66.5478 209.112 66.0358 209.016C65.5238 208.931 65.0331 208.771 64.5638 208.536V207.224C65.0438 207.459 65.5611 207.645 66.1158 207.784C66.6704 207.912 67.2038 207.976 67.7158 207.976C68.7398 207.976 69.4758 207.779 69.9238 207.384C70.3824 206.979 70.6118 206.424 70.6118 205.72C70.6118 205.24 70.4838 204.856 70.2278 204.568C69.9824 204.269 69.6198 204.051 69.1398 203.912C68.6598 203.773 68.0838 203.704 67.4118 203.704H66.3078V202.504H67.4278C68.0571 202.504 68.5798 202.413 68.9958 202.232C69.4224 202.051 69.7424 201.8 69.9558 201.48C70.1798 201.149 70.2918 200.771 70.2918 200.344C70.2918 199.789 70.1051 199.363 69.7318 199.064C69.3584 198.755 68.8518 198.6 68.2118 198.6C67.8064 198.6 67.4384 198.643 67.1078 198.728C66.7771 198.803 66.4678 198.915 66.1798 199.064C65.9024 199.203 65.6198 199.368 65.3318 199.56L64.6278 198.6C64.9051 198.387 65.2198 198.189 65.5718 198.008C65.9344 197.827 66.3344 197.683 66.7718 197.576C67.2091 197.469 67.6838 197.416 68.1958 197.416C69.3904 197.416 70.2758 197.683 70.8518 198.216C71.4384 198.749 71.7318 199.427 71.7318 200.248ZM81.32 209H73.768V207.832L76.76 204.808C77.336 204.232 77.8213 203.72 78.216 203.272C78.6107 202.824 78.9093 202.387 79.112 201.96C79.3147 201.523 79.416 201.048 79.416 200.536C79.416 199.907 79.2293 199.432 78.856 199.112C78.4827 198.781 77.9973 198.616 77.4 198.616C76.8453 198.616 76.3547 198.712 75.928 198.904C75.512 199.096 75.0853 199.363 74.648 199.704L73.896 198.76C74.1947 198.504 74.52 198.275 74.872 198.072C75.2347 197.869 75.624 197.709 76.04 197.592C76.4667 197.475 76.92 197.416 77.4 197.416C78.1147 197.416 78.728 197.539 79.24 197.784C79.752 198.029 80.1467 198.381 80.424 198.84C80.712 199.288 80.856 199.827 80.856 200.456C80.856 200.904 80.7867 201.331 80.648 201.736C80.5093 202.131 80.312 202.52 80.056 202.904C79.8 203.288 79.4907 203.677 79.128 204.072C78.7653 204.467 78.3653 204.877 77.928 205.304L75.544 207.656V207.72H81.32V209ZM91.0805 209H86.9525V208.168L88.2965 207.864V198.728L86.9525 198.408V197.576H91.0805V198.408L89.7365 198.728V207.864L91.0805 208.168V209ZM95.9584 208.008C96.1717 208.008 96.3904 207.992 96.6144 207.96C96.8384 207.917 97.0197 207.875 97.1584 207.832V208.904C97.009 208.979 96.7957 209.037 96.5184 209.08C96.241 209.133 95.9744 209.16 95.7184 209.16C95.2704 209.16 94.8544 209.085 94.4704 208.936C94.097 208.776 93.793 208.504 93.5584 208.12C93.3237 207.736 93.2064 207.197 93.2064 206.504V201.512H91.9904V200.84L93.2224 200.28L93.7824 198.456H94.6144V200.424H97.0944V201.512H94.6144V206.472C94.6144 206.995 94.737 207.384 94.9824 207.64C95.2384 207.885 95.5637 208.008 95.9584 208.008ZM102.188 200.264C102.924 200.264 103.553 200.424 104.076 200.744C104.609 201.064 105.014 201.517 105.292 202.104C105.58 202.68 105.724 203.357 105.724 204.136V204.984H99.8516C99.873 205.955 100.118 206.696 100.588 207.208C101.068 207.709 101.734 207.96 102.588 207.96C103.132 207.96 103.612 207.912 104.028 207.816C104.454 207.709 104.892 207.56 105.34 207.368V208.6C104.902 208.792 104.47 208.931 104.044 209.016C103.617 209.112 103.11 209.16 102.524 209.16C101.713 209.16 100.993 208.995 100.364 208.664C99.745 208.333 99.2596 207.843 98.9076 207.192C98.5663 206.531 98.3956 205.725 98.3956 204.776C98.3956 203.837 98.5503 203.032 98.8596 202.36C99.1796 201.688 99.6223 201.171 100.188 200.808C100.764 200.445 101.43 200.264 102.188 200.264ZM102.172 201.416C101.5 201.416 100.966 201.635 100.572 202.072C100.188 202.499 99.9583 203.096 99.8836 203.864H104.252C104.252 203.373 104.177 202.947 104.028 202.584C103.878 202.221 103.649 201.939 103.34 201.736C103.041 201.523 102.652 201.416 102.172 201.416ZM117.315 200.264C118.286 200.264 119.011 200.515 119.491 201.016C119.971 201.507 120.211 202.307 120.211 203.416V209H118.819V203.48C118.819 202.808 118.675 202.301 118.387 201.96C118.11 201.619 117.672 201.448 117.075 201.448C116.243 201.448 115.646 201.688 115.283 202.168C114.931 202.648 114.755 203.347 114.755 204.264V209H113.363V203.48C113.363 203.032 113.299 202.659 113.171 202.36C113.043 202.051 112.851 201.821 112.595 201.672C112.339 201.523 112.008 201.448 111.603 201.448C111.027 201.448 110.574 201.571 110.243 201.816C109.912 202.051 109.672 202.397 109.523 202.856C109.384 203.315 109.315 203.88 109.315 204.552V209H107.907V200.424H109.043L109.251 201.592H109.331C109.512 201.293 109.731 201.048 109.987 200.856C110.254 200.653 110.547 200.504 110.867 200.408C111.187 200.312 111.518 200.264 111.859 200.264C112.52 200.264 113.07 200.381 113.507 200.616C113.955 200.851 114.28 201.213 114.483 201.704H114.563C114.851 201.213 115.24 200.851 115.731 200.616C116.232 200.381 116.76 200.264 117.315 200.264ZM128.444 206.632C128.444 207.187 128.305 207.651 128.028 208.024C127.751 208.397 127.356 208.68 126.844 208.872C126.332 209.064 125.724 209.16 125.02 209.16C124.423 209.16 123.905 209.112 123.468 209.016C123.041 208.92 122.663 208.787 122.332 208.616V207.336C122.673 207.507 123.084 207.667 123.564 207.816C124.055 207.955 124.551 208.024 125.052 208.024C125.767 208.024 126.284 207.912 126.604 207.688C126.924 207.453 127.084 207.144 127.084 206.76C127.084 206.547 127.025 206.355 126.908 206.184C126.791 206.013 126.577 205.843 126.268 205.672C125.969 205.501 125.537 205.309 124.972 205.096C124.417 204.883 123.943 204.669 123.548 204.456C123.153 204.243 122.849 203.987 122.636 203.688C122.423 203.389 122.316 203.005 122.316 202.536C122.316 201.811 122.609 201.251 123.196 200.856C123.793 200.461 124.572 200.264 125.532 200.264C126.055 200.264 126.54 200.317 126.988 200.424C127.447 200.52 127.873 200.659 128.268 200.84L127.788 201.96C127.553 201.853 127.303 201.763 127.036 201.688C126.78 201.603 126.519 201.539 126.252 201.496C125.985 201.443 125.713 201.416 125.436 201.416C124.86 201.416 124.417 201.512 124.108 201.704C123.809 201.885 123.66 202.136 123.66 202.456C123.66 202.691 123.729 202.893 123.868 203.064C124.007 203.224 124.236 203.384 124.556 203.544C124.887 203.693 125.324 203.875 125.868 204.088C126.412 204.291 126.876 204.499 127.26 204.712C127.644 204.925 127.937 205.187 128.14 205.496C128.343 205.795 128.444 206.173 128.444 206.632Z" fill="#8F7D6A"/>
</svg>
