<svg width="32" height="31" viewBox="0 0 32 31" fill="none" xmlns="http://www.w3.org/2000/svg">
<rect x="0.666016" width="30.3529" height="30.3529" rx="6" fill="#503217"/>
<path d="M14.1121 16.5901C14.0664 16.5901 13.0594 16.5901 12.6017 16.5901C12.3575 16.5901 12.2813 16.4985 12.2813 16.2697C12.2813 15.6594 12.2813 15.0338 12.2813 14.4235C12.2813 14.1794 12.3728 14.1031 12.6017 14.1031L14.1121 14.1031C14.1121 14.0573 14.1121 13.1724 14.1121 12.7605C14.1121 12.1502 14.2189 11.5704 14.5241 11.0364C14.8445 10.4871 15.3022 10.1209 15.882 9.90733C16.2634 9.77001 16.6449 9.70898 17.0568 9.70898L18.552 9.70898C18.7657 9.70898 18.8572 9.80053 18.8572 10.0141L18.8572 11.7535C18.8572 11.9671 18.7657 12.0586 18.552 12.0586C18.1401 12.0586 17.7281 12.0586 17.3162 12.0739C16.9042 12.0739 16.6906 12.2722 16.6906 12.6994C16.6754 13.1572 16.6906 13.5996 16.6906 14.0726L18.4605 14.0726C18.7046 14.0726 18.7962 14.1641 18.7962 14.4083L18.7962 16.2544C18.7962 16.4985 18.7199 16.5748 18.4605 16.5748C17.9112 16.5748 16.7364 16.5748 16.6906 16.5748L16.6906 21.5487C16.6906 21.8081 16.6144 21.8997 16.3397 21.8997C15.6989 21.8997 15.0734 21.8997 14.4325 21.8997C14.2037 21.8997 14.1121 21.8081 14.1121 21.5793C14.1121 19.9772 14.1121 16.6358 14.1121 16.5901Z" fill="#F2F2F2"/>
</svg>
