<svg width="80" height="31" viewBox="0 0 80 31" fill="none" xmlns="http://www.w3.org/2000/svg">
<rect y="0.251953" width="80" height="30" rx="10" fill="#D3744A"/>
<path d="M20.0254 17.77C20.0254 18.5783 19.7334 19.2152 19.1494 19.6807C18.5654 20.1462 17.7529 20.3789 16.7119 20.3789C15.6117 20.3789 14.7611 20.2329 14.1602 19.9409V18.8237C14.5537 18.993 14.9832 19.1263 15.4487 19.2236C15.9185 19.321 16.3564 19.3696 16.7627 19.3696C17.4567 19.3696 17.9793 19.2363 18.3306 18.9697C18.6818 18.7031 18.8574 18.3371 18.8574 17.8716C18.8574 17.5627 18.7939 17.3088 18.667 17.1099C18.54 16.911 18.3263 16.7248 18.0259 16.5513C17.7297 16.3778 17.279 16.181 16.6738 15.9609C15.8148 15.6478 15.2012 15.2796 14.833 14.8564C14.4648 14.429 14.2808 13.8789 14.2808 13.2061C14.2808 12.4824 14.5516 11.9069 15.0933 11.4795C15.6392 11.0521 16.3564 10.8384 17.2451 10.8384C18.1719 10.8384 19.0246 11.0119 19.8032 11.3589L19.4414 12.3618C18.6458 12.0317 17.9053 11.8667 17.2197 11.8667C16.6696 11.8667 16.238 11.9852 15.9248 12.2222C15.6159 12.4591 15.4614 12.7913 15.4614 13.2188C15.4614 13.5234 15.5207 13.7773 15.6392 13.9805C15.7619 14.1794 15.9565 14.3613 16.2231 14.5264C16.494 14.6914 16.9172 14.8797 17.4927 15.0913C18.1825 15.3452 18.6966 15.5928 19.0352 15.834C19.3737 16.071 19.6234 16.346 19.7842 16.6592C19.945 16.9681 20.0254 17.3384 20.0254 17.77ZM26.043 20.252L25.8208 19.2617H25.77C25.423 19.6976 25.076 19.9938 24.729 20.1504C24.3862 20.3027 23.9525 20.3789 23.4277 20.3789C22.7422 20.3789 22.2048 20.1991 21.8154 19.8394C21.4261 19.4797 21.2314 18.9718 21.2314 18.3159C21.2314 16.9025 22.3465 16.1619 24.5767 16.0942L25.7573 16.0498V15.6372C25.7573 15.1082 25.6431 14.7189 25.4146 14.4692C25.186 14.2153 24.82 14.0884 24.3164 14.0884C23.9482 14.0884 23.5991 14.1434 23.269 14.2534C22.9432 14.3634 22.6364 14.4862 22.3486 14.6216L21.9995 13.7646C22.3507 13.5785 22.7337 13.4325 23.1484 13.3267C23.5632 13.2209 23.9736 13.168 24.3799 13.168C25.222 13.168 25.8483 13.3542 26.2588 13.7266C26.6693 14.099 26.8745 14.6914 26.8745 15.5039V20.252H26.043ZM23.688 19.4585C24.327 19.4585 24.8285 19.2871 25.1924 18.9443C25.5605 18.5973 25.7446 18.1064 25.7446 17.4717V16.8433L24.7163 16.8877C23.9165 16.9173 23.3325 17.0443 22.9644 17.2686C22.6004 17.4928 22.4185 17.8462 22.4185 18.3286C22.4185 18.6925 22.5285 18.9718 22.7485 19.1665C22.9728 19.3612 23.286 19.4585 23.688 19.4585ZM33.7871 20.252V15.7959C33.7871 15.2288 33.6602 14.8078 33.4062 14.5327C33.1566 14.2534 32.763 14.1138 32.2256 14.1138C31.5104 14.1138 30.9899 14.3127 30.6641 14.7104C30.3424 15.104 30.1816 15.7472 30.1816 16.6401V20.252H29.0391V13.2822H29.9595L30.1309 14.2344H30.1943C30.4102 13.8916 30.7127 13.6271 31.1021 13.4409C31.4914 13.2505 31.9209 13.1553 32.3906 13.1553C33.2454 13.1553 33.8802 13.3626 34.2949 13.7773C34.7096 14.1921 34.917 14.8374 34.917 15.7134V20.252H33.7871ZM38.2178 20.252H37.0752V13.2822H38.2178V20.252ZM36.9863 11.397C36.9863 11.1431 37.0498 10.959 37.1768 10.8447C37.3079 10.7305 37.4688 10.6733 37.6592 10.6733C37.8369 10.6733 37.9914 10.7305 38.1226 10.8447C38.258 10.959 38.3257 11.1431 38.3257 11.397C38.3257 11.6466 38.258 11.8307 38.1226 11.9492C37.9914 12.0677 37.8369 12.127 37.6592 12.127C37.4688 12.127 37.3079 12.0677 37.1768 11.9492C37.0498 11.8307 36.9863 11.6466 36.9863 11.397ZM42.7563 19.4458C42.9045 19.4458 43.078 19.431 43.2769 19.4014C43.4757 19.3717 43.626 19.3379 43.7275 19.2998V20.1758C43.6217 20.2223 43.4567 20.2668 43.2324 20.3091C43.0124 20.3556 42.7881 20.3789 42.5596 20.3789C41.1969 20.3789 40.5156 19.6616 40.5156 18.2271V14.1709H39.5317V13.625L40.5283 13.168L40.9854 11.6826H41.6646V13.2822H43.6768V14.1709H41.6646V18.1953C41.6646 18.5973 41.7598 18.9062 41.9502 19.1221C42.1449 19.3379 42.4136 19.4458 42.7563 19.4458ZM46.2666 20.252H45.124V13.2822H46.2666V20.252ZM45.0352 11.397C45.0352 11.1431 45.0986 10.959 45.2256 10.8447C45.3568 10.7305 45.5176 10.6733 45.708 10.6733C45.8857 10.6733 46.0402 10.7305 46.1714 10.8447C46.3068 10.959 46.3745 11.1431 46.3745 11.397C46.3745 11.6466 46.3068 11.8307 46.1714 11.9492C46.0402 12.0677 45.8857 12.127 45.708 12.127C45.5176 12.127 45.3568 12.0677 45.2256 11.9492C45.0986 11.8307 45.0352 11.6466 45.0352 11.397ZM52.9761 20.252H47.8789V19.4966L51.624 14.1709H48.1011V13.2822H52.8809V14.1392L49.1929 19.3696H52.9761V20.252ZM57.5591 20.3789C56.5138 20.3789 55.6929 20.0636 55.0962 19.4331C54.5037 18.7983 54.2075 17.9266 54.2075 16.8179C54.2075 15.7007 54.4847 14.812 55.0391 14.1519C55.5934 13.4875 56.3424 13.1553 57.2861 13.1553C58.1621 13.1553 58.8604 13.4388 59.3809 14.0059C59.9014 14.5687 60.1616 15.3325 60.1616 16.2974V16.9893H55.3882C55.4093 17.7806 55.6104 18.3815 55.9912 18.792C56.3721 19.2025 56.9116 19.4077 57.6099 19.4077C57.9823 19.4077 58.3356 19.376 58.6699 19.3125C59.0042 19.2448 59.3957 19.1157 59.8442 18.9253V19.9282C59.4591 20.0933 59.0973 20.2096 58.7588 20.2773C58.4202 20.3451 58.0203 20.3789 57.5591 20.3789ZM57.2734 14.0884C56.7275 14.0884 56.2959 14.264 55.9785 14.6152C55.6611 14.9665 55.4728 15.4552 55.4136 16.0815H58.9619C58.9535 15.4299 58.8032 14.9347 58.5112 14.5962C58.2192 14.2576 57.8066 14.0884 57.2734 14.0884ZM65.1826 13.1553C65.4915 13.1553 65.7645 13.1807 66.0015 13.2314L65.8618 14.2852C65.6037 14.2259 65.3519 14.1963 65.1064 14.1963C64.7383 14.1963 64.3955 14.2979 64.0781 14.501C63.765 14.7041 63.5195 14.9855 63.3418 15.3452C63.1641 15.7007 63.0752 16.0964 63.0752 16.5322V20.252H61.9326V13.2822H62.8721L62.999 14.5581H63.0498C63.3164 14.0968 63.6317 13.7477 63.9956 13.5107C64.3595 13.2738 64.7552 13.1553 65.1826 13.1553Z" fill="#EEEDE7"/>
</svg>
