<svg width="31" height="31" viewBox="0 0 31 31" fill="none" xmlns="http://www.w3.org/2000/svg">
<rect x="0.0195312" width="30.3529" height="30.3529" rx="6" fill="#503217"/>
<g clip-path="url(#clip0_1670_42)">
<path d="M21.9283 12.1591C21.8959 11.4244 21.7771 10.9192 21.6069 10.4816C21.4313 10.017 21.1612 9.60104 20.8073 9.25527C20.4615 8.90411 20.0428 8.63125 19.5836 8.45841C19.1434 8.28822 18.641 8.1694 17.9063 8.13701C17.1661 8.10187 16.9311 8.09375 15.0538 8.09375C13.1764 8.09375 12.9414 8.10187 12.204 8.13427C11.4693 8.16666 10.9642 8.28558 10.5266 8.45567C10.0619 8.63125 9.64596 8.90137 9.30019 9.25527C8.94903 9.60104 8.67627 10.0197 8.50333 10.4789C8.33314 10.9193 8.21433 11.4216 8.18193 12.1563C8.1468 12.8965 8.13867 13.1315 8.13867 15.0088C8.13867 16.8862 8.1468 17.1211 8.17919 17.8586C8.21158 18.5933 8.3305 19.0984 8.5007 19.5361C8.67627 20.0007 8.94903 20.4166 9.30019 20.7624C9.64596 21.1135 10.0647 21.3864 10.5239 21.5592C10.9642 21.7294 11.4665 21.8483 12.2013 21.8806C12.9387 21.9131 13.1738 21.9212 15.0511 21.9212C16.9284 21.9212 17.1634 21.9131 17.9009 21.8806C18.6356 21.8483 19.1407 21.7294 19.5783 21.5592C20.5075 21.2 21.2422 20.4653 21.6015 19.5361C21.7716 19.0958 21.8905 18.5933 21.9229 17.8586C21.9553 17.1211 21.9634 16.8862 21.9634 15.0088C21.9634 13.1315 21.9607 12.8965 21.9283 12.1591ZM20.6831 17.8046C20.6534 18.4799 20.5399 18.8445 20.4454 19.0876C20.213 19.69 19.735 20.1681 19.1326 20.4005C18.8895 20.495 18.5222 20.6084 17.8495 20.6381C17.1202 20.6706 16.9014 20.6786 15.0565 20.6786C13.2116 20.6786 12.9901 20.6706 12.2634 20.6381C11.5881 20.6084 11.2234 20.495 10.9803 20.4005C10.6805 20.2897 10.4077 20.1141 10.1862 19.8845C9.9566 19.6603 9.78102 19.3902 9.67023 19.0904C9.57569 18.8473 9.46226 18.4799 9.43261 17.8073C9.40011 17.078 9.39209 16.8592 9.39209 15.0142C9.39209 13.1693 9.40011 12.9478 9.43261 12.2212C9.46226 11.5459 9.57569 11.1812 9.67023 10.9381C9.78102 10.6383 9.9566 10.3655 10.1889 10.1439C10.4131 9.91432 10.6832 9.73874 10.9831 9.62805C11.2262 9.53351 11.5936 9.42008 12.2661 9.39033C12.9955 9.35793 13.2143 9.34981 15.0591 9.34981C16.9068 9.34981 17.1256 9.35793 17.8522 9.39033C18.5275 9.42008 18.8922 9.53351 19.1353 9.62805C19.4351 9.73874 19.7079 9.91432 19.9294 10.1439C20.159 10.3681 20.3346 10.6383 20.4454 10.9381C20.5399 11.1812 20.6534 11.5485 20.6831 12.2212C20.7155 12.9505 20.7236 13.1693 20.7236 15.0142C20.7236 16.8592 20.7155 17.0752 20.6831 17.8046Z" fill="#F2F2F2"/>
<path d="M15.0521 11.457C13.0911 11.457 11.5 13.048 11.5 15.0091C11.5 16.9702 13.0911 18.5612 15.0521 18.5612C17.0132 18.5612 18.6042 16.9702 18.6042 15.0091C18.6042 13.048 17.0132 11.457 15.0521 11.457ZM15.0521 17.3133C13.7799 17.3133 12.7479 16.2814 12.7479 15.0091C12.7479 13.7368 13.7799 12.705 15.0521 12.705C16.3244 12.705 17.3562 13.7368 17.3562 15.0091C17.3562 16.2814 16.3244 17.3133 15.0521 17.3133Z" fill="#F2F2F2"/>
<path d="M19.4516 11.6886C19.4516 12.1466 19.0803 12.5179 18.6222 12.5179C18.1643 12.5179 17.793 12.1466 17.793 11.6886C17.793 11.2306 18.1643 10.8594 18.6222 10.8594C19.0803 10.8594 19.4516 11.2306 19.4516 11.6886Z" fill="#F2F2F2"/>
</g>
<defs>
<clipPath id="clip0_1670_42">
<rect width="13.8275" height="13.8275" fill="white" transform="translate(8.11328 8.09375)"/>
</clipPath>
</defs>
</svg>
