<svg width="16" height="15" viewBox="0 0 16 15" fill="none" xmlns="http://www.w3.org/2000/svg">
<path fill-rule="evenodd" clip-rule="evenodd" d="M14.0349 9.89585C14.0349 11.1625 13.0046 12.1913 11.7395 12.1913L4.20852 12.1913C2.94345 12.1913 1.91305 11.1625 1.91305 9.89585L1.91305 5.10399C1.91305 4.68124 2.0288 4.28418 2.22972 3.9434L5.90436 7.61805C6.45412 8.16941 7.19032 8.47322 7.97478 8.47322C8.75762 8.47322 9.49382 8.16941 10.0436 7.61805L13.7182 3.9434C13.9192 4.28418 14.0349 4.68121 14.0349 5.10399L14.0349 9.89585L14.0349 9.89585ZM11.7395 2.80855L4.20852 2.80855C3.68609 2.80855 3.20384 2.98536 2.81806 3.27953L6.52968 6.99276C6.91388 7.37532 7.42663 7.58752 7.97478 7.58752C8.52131 7.58752 9.03409 7.37532 9.41826 6.99276L13.1299 3.27953C12.7441 2.98536 12.2619 2.80855 11.7395 2.80855ZM11.7395 1.92285L4.20852 1.92285C2.45478 1.92285 1.02734 3.35028 1.02734 5.10402L1.02734 9.89588C1.02734 11.6512 2.45478 13.0771 4.20852 13.0771L11.7395 13.0771C13.4932 13.0771 14.9206 11.6512 14.9206 9.89588L14.9206 5.10399C14.9206 3.35025 13.4932 1.92285 11.7395 1.92285Z" fill="#503217"/>
</svg>
