<svg width="1073" height="116" viewBox="0 0 1073 116" fill="none" xmlns="http://www.w3.org/2000/svg">
<path d="M10.116 89.32V91.552H3.036V96.472H8.556V98.704H3.036V106H0.3V89.32H10.116ZM15.3876 94.696C15.7876 94.024 16.3156 93.504 16.9716 93.136C17.6436 92.752 18.4356 92.56 19.3476 92.56V95.392H18.6516C17.5796 95.392 16.7636 95.664 16.2036 96.208C15.6596 96.752 15.3876 97.696 15.3876 99.04V106H12.6516V92.776H15.3876V94.696ZM33.9825 99.064C33.9825 99.56 33.9505 100.008 33.8865 100.408H23.7825C23.8625 101.464 24.2545 102.312 24.9585 102.952C25.6625 103.592 26.5265 103.912 27.5505 103.912C29.0225 103.912 30.0625 103.296 30.6705 102.064H33.6225C33.2225 103.28 32.4945 104.28 31.4385 105.064C30.3985 105.832 29.1025 106.216 27.5505 106.216C26.2865 106.216 25.1505 105.936 24.1425 105.376C23.1505 104.8 22.3665 104 21.7905 102.976C21.2305 101.936 20.9505 100.736 20.9505 99.376C20.9505 98.016 21.2225 96.824 21.7665 95.8C22.3265 94.76 23.1025 93.96 24.0945 93.4C25.1025 92.84 26.2545 92.56 27.5505 92.56C28.7985 92.56 29.9105 92.832 30.8865 93.376C31.8625 93.92 32.6225 94.688 33.1665 95.68C33.7105 96.656 33.9825 97.784 33.9825 99.064ZM31.1265 98.2C31.1105 97.192 30.7505 96.384 30.0465 95.776C29.3425 95.168 28.4705 94.864 27.4305 94.864C26.4865 94.864 25.6785 95.168 25.0065 95.776C24.3345 96.368 23.9345 97.176 23.8065 98.2H31.1265ZM48.795 99.064C48.795 99.56 48.763 100.008 48.699 100.408H38.595C38.675 101.464 39.067 102.312 39.771 102.952C40.475 103.592 41.339 103.912 42.363 103.912C43.835 103.912 44.875 103.296 45.483 102.064H48.435C48.035 103.28 47.307 104.28 46.251 105.064C45.211 105.832 43.915 106.216 42.363 106.216C41.099 106.216 39.963 105.936 38.955 105.376C37.963 104.8 37.179 104 36.603 102.976C36.043 101.936 35.763 100.736 35.763 99.376C35.763 98.016 36.035 96.824 36.579 95.8C37.139 94.76 37.915 93.96 38.907 93.4C39.915 92.84 41.067 92.56 42.363 92.56C43.611 92.56 44.723 92.832 45.699 93.376C46.675 93.92 47.435 94.688 47.979 95.68C48.523 96.656 48.795 97.784 48.795 99.064ZM45.939 98.2C45.923 97.192 45.563 96.384 44.859 95.776C44.155 95.168 43.283 94.864 42.243 94.864C41.299 94.864 40.491 95.168 39.819 95.776C39.147 96.368 38.747 97.176 38.619 98.2H45.939ZM62.5219 106.216C61.4819 106.216 60.5459 106.032 59.7139 105.664C58.8979 105.28 58.2499 104.768 57.7699 104.128C57.2899 103.472 57.0339 102.744 57.0019 101.944H59.8339C59.8819 102.504 60.1459 102.976 60.6259 103.36C61.1219 103.728 61.7379 103.912 62.4739 103.912C63.2419 103.912 63.8339 103.768 64.2499 103.48C64.6819 103.176 64.8979 102.792 64.8979 102.328C64.8979 101.832 64.6579 101.464 64.1779 101.224C63.7139 100.984 62.9699 100.72 61.9459 100.432C60.9539 100.16 60.1459 99.896 59.5219 99.64C58.8979 99.384 58.3539 98.992 57.8899 98.464C57.4419 97.936 57.2179 97.24 57.2179 96.376C57.2179 95.672 57.4259 95.032 57.8419 94.456C58.2579 93.864 58.8499 93.4 59.6179 93.064C60.4019 92.728 61.2979 92.56 62.3059 92.56C63.8099 92.56 65.0179 92.944 65.9299 93.712C66.8579 94.464 67.3539 95.496 67.4179 96.808H64.6819C64.6339 96.216 64.3939 95.744 63.9619 95.392C63.5299 95.04 62.9459 94.864 62.2099 94.864C61.4899 94.864 60.9379 95 60.5539 95.272C60.1699 95.544 59.9779 95.904 59.9779 96.352C59.9779 96.704 60.1059 97 60.3619 97.24C60.6179 97.48 60.9299 97.672 61.2979 97.816C61.6659 97.944 62.2099 98.112 62.9299 98.32C63.8899 98.576 64.6739 98.84 65.2819 99.112C65.9059 99.368 66.4419 99.752 66.8899 100.264C67.3379 100.776 67.5699 101.456 67.5859 102.304C67.5859 103.056 67.3779 103.728 66.9619 104.32C66.5459 104.912 65.9539 105.376 65.1859 105.712C64.4339 106.048 63.5459 106.216 62.5219 106.216ZM77.3822 92.56C78.3902 92.56 79.2862 92.776 80.0702 93.208C80.8702 93.64 81.4942 94.28 81.9422 95.128C82.4062 95.976 82.6382 97 82.6382 98.2V106H79.9262V98.608C79.9262 97.424 79.6302 96.52 79.0382 95.896C78.4462 95.256 77.6382 94.936 76.6142 94.936C75.5902 94.936 74.7742 95.256 74.1662 95.896C73.5742 96.52 73.2782 97.424 73.2782 98.608V106H70.5422V88.24H73.2782V94.312C73.7422 93.752 74.3262 93.32 75.0302 93.016C75.7502 92.712 76.5342 92.56 77.3822 92.56ZM87.5201 91.024C87.0241 91.024 86.6081 90.856 86.2721 90.52C85.9361 90.184 85.7681 89.768 85.7681 89.272C85.7681 88.776 85.9361 88.36 86.2721 88.024C86.6081 87.688 87.0241 87.52 87.5201 87.52C88.0001 87.52 88.4081 87.688 88.7441 88.024C89.0801 88.36 89.2481 88.776 89.2481 89.272C89.2481 89.768 89.0801 90.184 88.7441 90.52C88.4081 90.856 88.0001 91.024 87.5201 91.024ZM88.8641 92.776V106H86.1281V92.776H88.8641ZM95.1923 94.72C95.6563 94.112 96.2883 93.6 97.0883 93.184C97.8883 92.768 98.7923 92.56 99.8003 92.56C100.952 92.56 102 92.848 102.944 93.424C103.904 93.984 104.656 94.776 105.2 95.8C105.744 96.824 106.016 98 106.016 99.328C106.016 100.656 105.744 101.848 105.2 102.904C104.656 103.944 103.904 104.76 102.944 105.352C102 105.928 100.952 106.216 99.8003 106.216C98.7923 106.216 97.8963 106.016 97.1123 105.616C96.3283 105.2 95.6883 104.688 95.1923 104.08V112.288H92.4563V92.776H95.1923V94.72ZM103.232 99.328C103.232 98.416 103.04 97.632 102.656 96.976C102.288 96.304 101.792 95.8 101.168 95.464C100.56 95.112 99.9043 94.936 99.2003 94.936C98.5123 94.936 97.8563 95.112 97.2323 95.464C96.6243 95.816 96.1283 96.328 95.7443 97C95.3763 97.672 95.1923 98.464 95.1923 99.376C95.1923 100.288 95.3763 101.088 95.7443 101.776C96.1283 102.448 96.6243 102.96 97.2323 103.312C97.8563 103.664 98.5123 103.84 99.2003 103.84C99.9043 103.84 100.56 103.664 101.168 103.312C101.792 102.944 102.288 102.416 102.656 101.728C103.04 101.04 103.232 100.24 103.232 99.328ZM111.458 94.72C111.922 94.112 112.554 93.6 113.354 93.184C114.154 92.768 115.058 92.56 116.066 92.56C117.218 92.56 118.266 92.848 119.21 93.424C120.17 93.984 120.922 94.776 121.466 95.8C122.01 96.824 122.282 98 122.282 99.328C122.282 100.656 122.01 101.848 121.466 102.904C120.922 103.944 120.17 104.76 119.21 105.352C118.266 105.928 117.218 106.216 116.066 106.216C115.058 106.216 114.162 106.016 113.378 105.616C112.594 105.2 111.954 104.688 111.458 104.08V112.288H108.722V92.776H111.458V94.72ZM119.498 99.328C119.498 98.416 119.306 97.632 118.922 96.976C118.554 96.304 118.058 95.8 117.434 95.464C116.826 95.112 116.17 94.936 115.466 94.936C114.778 94.936 114.122 95.112 113.498 95.464C112.89 95.816 112.394 96.328 112.01 97C111.642 97.672 111.458 98.464 111.458 99.376C111.458 100.288 111.642 101.088 112.01 101.776C112.394 102.448 112.89 102.96 113.498 103.312C114.122 103.664 114.778 103.84 115.466 103.84C116.17 103.84 116.826 103.664 117.434 103.312C118.058 102.944 118.554 102.416 118.922 101.728C119.306 101.04 119.498 100.24 119.498 99.328ZM126.38 91.024C125.884 91.024 125.468 90.856 125.132 90.52C124.796 90.184 124.628 89.768 124.628 89.272C124.628 88.776 124.796 88.36 125.132 88.024C125.468 87.688 125.884 87.52 126.38 87.52C126.86 87.52 127.268 87.688 127.604 88.024C127.94 88.36 128.108 88.776 128.108 89.272C128.108 89.768 127.94 90.184 127.604 90.52C127.268 90.856 126.86 91.024 126.38 91.024ZM127.724 92.776V106H124.988V92.776H127.724ZM137.988 92.56C139.028 92.56 139.956 92.776 140.772 93.208C141.604 93.64 142.252 94.28 142.716 95.128C143.18 95.976 143.412 97 143.412 98.2V106H140.7V98.608C140.7 97.424 140.404 96.52 139.812 95.896C139.22 95.256 138.412 94.936 137.388 94.936C136.364 94.936 135.548 95.256 134.94 95.896C134.348 96.52 134.052 97.424 134.052 98.608V106H131.316V92.776H134.052V94.288C134.5 93.744 135.068 93.32 135.756 93.016C136.46 92.712 137.204 92.56 137.988 92.56ZM152.23 92.56C153.254 92.56 154.158 92.768 154.942 93.184C155.742 93.584 156.366 94.088 156.814 94.696V92.776H159.574V106.216C159.574 107.432 159.318 108.512 158.806 109.456C158.294 110.416 157.55 111.168 156.574 111.712C155.614 112.256 154.462 112.528 153.118 112.528C151.326 112.528 149.838 112.104 148.654 111.256C147.47 110.424 146.798 109.288 146.638 107.848H149.35C149.558 108.536 149.998 109.088 150.67 109.504C151.358 109.936 152.174 110.152 153.118 110.152C154.222 110.152 155.11 109.816 155.782 109.144C156.47 108.472 156.814 107.496 156.814 106.216V104.008C156.35 104.632 155.718 105.16 154.918 105.592C154.134 106.008 153.238 106.216 152.23 106.216C151.078 106.216 150.022 105.928 149.062 105.352C148.118 104.76 147.366 103.944 146.806 102.904C146.262 101.848 145.99 100.656 145.99 99.328C145.99 98 146.262 96.824 146.806 95.8C147.366 94.776 148.118 93.984 149.062 93.424C150.022 92.848 151.078 92.56 152.23 92.56ZM156.814 99.376C156.814 98.464 156.622 97.672 156.238 97C155.87 96.328 155.382 95.816 154.774 95.464C154.166 95.112 153.51 94.936 152.806 94.936C152.102 94.936 151.446 95.112 150.838 95.464C150.23 95.8 149.734 96.304 149.35 96.976C148.982 97.632 148.798 98.416 148.798 99.328C148.798 100.24 148.982 101.04 149.35 101.728C149.734 102.416 150.23 102.944 150.838 103.312C151.462 103.664 152.118 103.84 152.806 103.84C153.51 103.84 154.166 103.664 154.774 103.312C155.382 102.96 155.87 102.448 156.238 101.776C156.622 101.088 156.814 100.288 156.814 99.376Z" fill="#503217"/>
<path d="M295.036 91.528V96.424H300.796V98.656H295.036V103.768H301.516V106H292.3V89.296H301.516V91.528H295.036ZM303.974 99.328C303.974 98 304.246 96.824 304.79 95.8C305.35 94.776 306.102 93.984 307.046 93.424C308.006 92.848 309.062 92.56 310.214 92.56C311.254 92.56 312.158 92.768 312.926 93.184C313.71 93.584 314.334 94.088 314.798 94.696V92.776H317.558V106H314.798V104.032C314.334 104.656 313.702 105.176 312.902 105.592C312.102 106.008 311.19 106.216 310.166 106.216C309.03 106.216 307.99 105.928 307.046 105.352C306.102 104.76 305.35 103.944 304.79 102.904C304.246 101.848 303.974 100.656 303.974 99.328ZM314.798 99.376C314.798 98.464 314.606 97.672 314.222 97C313.854 96.328 313.366 95.816 312.758 95.464C312.15 95.112 311.494 94.936 310.79 94.936C310.086 94.936 309.43 95.112 308.822 95.464C308.214 95.8 307.718 96.304 307.334 96.976C306.966 97.632 306.782 98.416 306.782 99.328C306.782 100.24 306.966 101.04 307.334 101.728C307.718 102.416 308.214 102.944 308.822 103.312C309.446 103.664 310.102 103.84 310.79 103.84C311.494 103.84 312.15 103.664 312.758 103.312C313.366 102.96 313.854 102.448 314.222 101.776C314.606 101.088 314.798 100.288 314.798 99.376ZM325.952 106.216C324.912 106.216 323.976 106.032 323.144 105.664C322.328 105.28 321.68 104.768 321.2 104.128C320.72 103.472 320.464 102.744 320.432 101.944H323.264C323.312 102.504 323.576 102.976 324.056 103.36C324.552 103.728 325.168 103.912 325.904 103.912C326.672 103.912 327.264 103.768 327.68 103.48C328.112 103.176 328.328 102.792 328.328 102.328C328.328 101.832 328.088 101.464 327.608 101.224C327.144 100.984 326.4 100.72 325.376 100.432C324.384 100.16 323.576 99.896 322.952 99.64C322.328 99.384 321.784 98.992 321.32 98.464C320.872 97.936 320.648 97.24 320.648 96.376C320.648 95.672 320.856 95.032 321.272 94.456C321.688 93.864 322.28 93.4 323.048 93.064C323.832 92.728 324.728 92.56 325.736 92.56C327.24 92.56 328.448 92.944 329.36 93.712C330.288 94.464 330.784 95.496 330.848 96.808H328.112C328.064 96.216 327.824 95.744 327.392 95.392C326.96 95.04 326.376 94.864 325.64 94.864C324.92 94.864 324.368 95 323.984 95.272C323.6 95.544 323.408 95.904 323.408 96.352C323.408 96.704 323.536 97 323.792 97.24C324.048 97.48 324.36 97.672 324.728 97.816C325.096 97.944 325.64 98.112 326.36 98.32C327.32 98.576 328.104 98.84 328.712 99.112C329.336 99.368 329.872 99.752 330.32 100.264C330.768 100.776 331 101.456 331.016 102.304C331.016 103.056 330.808 103.728 330.392 104.32C329.976 104.912 329.384 105.376 328.616 105.712C327.864 106.048 326.976 106.216 325.952 106.216ZM345.876 92.776L337.764 112.216H334.932L337.62 105.784L332.412 92.776H335.46L339.18 102.856L343.044 92.776H345.876ZM356.911 94.696C357.311 94.024 357.839 93.504 358.495 93.136C359.167 92.752 359.959 92.56 360.871 92.56V95.392H360.175C359.103 95.392 358.287 95.664 357.727 96.208C357.183 96.752 356.911 97.696 356.911 99.04V106H354.175V92.776H356.911V94.696ZM375.506 99.064C375.506 99.56 375.474 100.008 375.41 100.408H365.306C365.386 101.464 365.778 102.312 366.482 102.952C367.186 103.592 368.05 103.912 369.074 103.912C370.546 103.912 371.586 103.296 372.194 102.064H375.146C374.746 103.28 374.018 104.28 372.962 105.064C371.922 105.832 370.626 106.216 369.074 106.216C367.81 106.216 366.674 105.936 365.666 105.376C364.674 104.8 363.89 104 363.314 102.976C362.754 101.936 362.474 100.736 362.474 99.376C362.474 98.016 362.746 96.824 363.29 95.8C363.85 94.76 364.626 93.96 365.618 93.4C366.626 92.84 367.778 92.56 369.074 92.56C370.322 92.56 371.434 92.832 372.41 93.376C373.386 93.92 374.146 94.688 374.69 95.68C375.234 96.656 375.506 97.784 375.506 99.064ZM372.65 98.2C372.634 97.192 372.274 96.384 371.57 95.776C370.866 95.168 369.994 94.864 368.954 94.864C368.01 94.864 367.202 95.168 366.53 95.776C365.858 96.368 365.458 97.176 365.33 98.2H372.65ZM383.742 95.008H381.294V106H378.534V95.008H376.974V92.776H378.534V91.84C378.534 90.32 378.934 89.216 379.734 88.528C380.55 87.824 381.822 87.472 383.55 87.472V89.752C382.718 89.752 382.134 89.912 381.798 90.232C381.462 90.536 381.294 91.072 381.294 91.84V92.776H383.742V95.008ZM398.143 92.776V106H395.407V104.44C394.975 104.984 394.407 105.416 393.703 105.736C393.015 106.04 392.279 106.192 391.495 106.192C390.455 106.192 389.519 105.976 388.687 105.544C387.871 105.112 387.223 104.472 386.743 103.624C386.279 102.776 386.047 101.752 386.047 100.552V92.776H388.759V100.144C388.759 101.328 389.055 102.24 389.647 102.88C390.239 103.504 391.047 103.816 392.071 103.816C393.095 103.816 393.903 103.504 394.495 102.88C395.103 102.24 395.407 101.328 395.407 100.144V92.776H398.143ZM408.425 92.56C409.465 92.56 410.393 92.776 411.209 93.208C412.041 93.64 412.689 94.28 413.153 95.128C413.617 95.976 413.849 97 413.849 98.2V106H411.137V98.608C411.137 97.424 410.841 96.52 410.249 95.896C409.657 95.256 408.849 94.936 407.825 94.936C406.801 94.936 405.985 95.256 405.377 95.896C404.785 96.52 404.489 97.424 404.489 98.608V106H401.753V92.776H404.489V94.288C404.937 93.744 405.505 93.32 406.193 93.016C406.897 92.712 407.641 92.56 408.425 92.56ZM416.427 99.328C416.427 98 416.699 96.824 417.243 95.8C417.803 94.776 418.555 93.984 419.499 93.424C420.459 92.848 421.523 92.56 422.691 92.56C423.555 92.56 424.403 92.752 425.235 93.136C426.083 93.504 426.755 94 427.251 94.624V88.24H430.011V106H427.251V104.008C426.803 104.648 426.179 105.176 425.379 105.592C424.595 106.008 423.691 106.216 422.667 106.216C421.515 106.216 420.459 105.928 419.499 105.352C418.555 104.76 417.803 103.944 417.243 102.904C416.699 101.848 416.427 100.656 416.427 99.328ZM427.251 99.376C427.251 98.464 427.059 97.672 426.675 97C426.307 96.328 425.819 95.816 425.211 95.464C424.603 95.112 423.947 94.936 423.243 94.936C422.539 94.936 421.883 95.112 421.275 95.464C420.667 95.8 420.171 96.304 419.787 96.976C419.419 97.632 419.235 98.416 419.235 99.328C419.235 100.24 419.419 101.04 419.787 101.728C420.171 102.416 420.667 102.944 421.275 103.312C421.899 103.664 422.555 103.84 423.243 103.84C423.947 103.84 424.603 103.664 425.211 103.312C425.819 102.96 426.307 102.448 426.675 101.776C427.059 101.088 427.251 100.288 427.251 99.376Z" fill="#503217"/>
<path d="M571.908 106.168C570.356 106.168 568.924 105.808 567.612 105.088C566.316 104.352 565.284 103.336 564.516 102.04C563.764 100.728 563.388 99.256 563.388 97.624C563.388 95.992 563.764 94.528 564.516 93.232C565.284 91.936 566.316 90.928 567.612 90.208C568.924 89.472 570.356 89.104 571.908 89.104C573.476 89.104 574.908 89.472 576.204 90.208C577.516 90.928 578.548 91.936 579.3 93.232C580.052 94.528 580.428 95.992 580.428 97.624C580.428 99.256 580.052 100.728 579.3 102.04C578.548 103.336 577.516 104.352 576.204 105.088C574.908 105.808 573.476 106.168 571.908 106.168ZM571.908 103.792C573.012 103.792 573.996 103.544 574.86 103.048C575.724 102.536 576.396 101.816 576.876 100.888C577.372 99.944 577.62 98.856 577.62 97.624C577.62 96.392 577.372 95.312 576.876 94.384C576.396 93.456 575.724 92.744 574.86 92.248C573.996 91.752 573.012 91.504 571.908 91.504C570.804 91.504 569.82 91.752 568.956 92.248C568.092 92.744 567.412 93.456 566.916 94.384C566.436 95.312 566.196 96.392 566.196 97.624C566.196 98.856 566.436 99.944 566.916 100.888C567.412 101.816 568.092 102.536 568.956 103.048C569.82 103.544 570.804 103.792 571.908 103.792ZM589.792 92.56C590.832 92.56 591.76 92.776 592.576 93.208C593.408 93.64 594.056 94.28 594.52 95.128C594.984 95.976 595.216 97 595.216 98.2V106H592.504V98.608C592.504 97.424 592.208 96.52 591.616 95.896C591.024 95.256 590.216 94.936 589.192 94.936C588.168 94.936 587.352 95.256 586.744 95.896C586.152 96.52 585.856 97.424 585.856 98.608V106H583.12V92.776H585.856V94.288C586.304 93.744 586.872 93.32 587.56 93.016C588.264 92.712 589.008 92.56 589.792 92.56ZM601.442 88.24V106H598.706V88.24H601.442ZM606.426 91.024C605.93 91.024 605.514 90.856 605.178 90.52C604.842 90.184 604.674 89.768 604.674 89.272C604.674 88.776 604.842 88.36 605.178 88.024C605.514 87.688 605.93 87.52 606.426 87.52C606.906 87.52 607.314 87.688 607.65 88.024C607.986 88.36 608.154 88.776 608.154 89.272C608.154 89.768 607.986 90.184 607.65 90.52C607.314 90.856 606.906 91.024 606.426 91.024ZM607.77 92.776V106H605.034V92.776H607.77ZM618.035 92.56C619.075 92.56 620.003 92.776 620.819 93.208C621.651 93.64 622.299 94.28 622.763 95.128C623.227 95.976 623.459 97 623.459 98.2V106H620.747V98.608C620.747 97.424 620.451 96.52 619.859 95.896C619.267 95.256 618.459 94.936 617.435 94.936C616.411 94.936 615.595 95.256 614.987 95.896C614.395 96.52 614.099 97.424 614.099 98.608V106H611.363V92.776H614.099V94.288C614.547 93.744 615.115 93.32 615.803 93.016C616.507 92.712 617.251 92.56 618.035 92.56ZM639.068 99.064C639.068 99.56 639.036 100.008 638.972 100.408H628.868C628.948 101.464 629.34 102.312 630.044 102.952C630.748 103.592 631.612 103.912 632.636 103.912C634.108 103.912 635.148 103.296 635.756 102.064H638.708C638.308 103.28 637.58 104.28 636.524 105.064C635.484 105.832 634.188 106.216 632.636 106.216C631.372 106.216 630.236 105.936 629.228 105.376C628.236 104.8 627.452 104 626.876 102.976C626.316 101.936 626.036 100.736 626.036 99.376C626.036 98.016 626.308 96.824 626.852 95.8C627.412 94.76 628.188 93.96 629.18 93.4C630.188 92.84 631.34 92.56 632.636 92.56C633.884 92.56 634.996 92.832 635.972 93.376C636.948 93.92 637.708 94.688 638.252 95.68C638.796 96.656 639.068 97.784 639.068 99.064ZM636.212 98.2C636.196 97.192 635.836 96.384 635.132 95.776C634.428 95.168 633.556 94.864 632.516 94.864C631.572 94.864 630.764 95.168 630.092 95.776C629.42 96.368 629.02 97.176 628.892 98.2H636.212ZM652.795 106.216C651.755 106.216 650.819 106.032 649.987 105.664C649.171 105.28 648.523 104.768 648.043 104.128C647.563 103.472 647.307 102.744 647.275 101.944H650.107C650.155 102.504 650.419 102.976 650.899 103.36C651.395 103.728 652.011 103.912 652.747 103.912C653.515 103.912 654.107 103.768 654.523 103.48C654.955 103.176 655.171 102.792 655.171 102.328C655.171 101.832 654.931 101.464 654.451 101.224C653.987 100.984 653.243 100.72 652.219 100.432C651.227 100.16 650.419 99.896 649.795 99.64C649.171 99.384 648.627 98.992 648.163 98.464C647.715 97.936 647.491 97.24 647.491 96.376C647.491 95.672 647.699 95.032 648.115 94.456C648.531 93.864 649.123 93.4 649.891 93.064C650.675 92.728 651.571 92.56 652.579 92.56C654.083 92.56 655.291 92.944 656.203 93.712C657.131 94.464 657.627 95.496 657.691 96.808H654.955C654.907 96.216 654.667 95.744 654.235 95.392C653.803 95.04 653.219 94.864 652.483 94.864C651.763 94.864 651.211 95 650.827 95.272C650.443 95.544 650.251 95.904 650.251 96.352C650.251 96.704 650.379 97 650.635 97.24C650.891 97.48 651.203 97.672 651.571 97.816C651.939 97.944 652.483 98.112 653.203 98.32C654.163 98.576 654.947 98.84 655.555 99.112C656.179 99.368 656.715 99.752 657.163 100.264C657.611 100.776 657.843 101.456 657.859 102.304C657.859 103.056 657.651 103.728 657.235 104.32C656.819 104.912 656.227 105.376 655.459 105.712C654.707 106.048 653.819 106.216 652.795 106.216ZM672.792 92.776V106H670.056V104.44C669.624 104.984 669.056 105.416 668.352 105.736C667.664 106.04 666.928 106.192 666.144 106.192C665.104 106.192 664.168 105.976 663.336 105.544C662.52 105.112 661.872 104.472 661.392 103.624C660.928 102.776 660.696 101.752 660.696 100.552V92.776H663.408V100.144C663.408 101.328 663.704 102.24 664.296 102.88C664.888 103.504 665.696 103.816 666.72 103.816C667.744 103.816 668.552 103.504 669.144 102.88C669.752 102.24 670.056 101.328 670.056 100.144V92.776H672.792ZM679.138 94.72C679.602 94.112 680.234 93.6 681.034 93.184C681.834 92.768 682.738 92.56 683.746 92.56C684.898 92.56 685.946 92.848 686.89 93.424C687.85 93.984 688.602 94.776 689.146 95.8C689.69 96.824 689.962 98 689.962 99.328C689.962 100.656 689.69 101.848 689.146 102.904C688.602 103.944 687.85 104.76 686.89 105.352C685.946 105.928 684.898 106.216 683.746 106.216C682.738 106.216 681.842 106.016 681.058 105.616C680.274 105.2 679.634 104.688 679.138 104.08V112.288H676.402V92.776H679.138V94.72ZM687.178 99.328C687.178 98.416 686.986 97.632 686.602 96.976C686.234 96.304 685.738 95.8 685.114 95.464C684.506 95.112 683.85 94.936 683.146 94.936C682.458 94.936 681.802 95.112 681.178 95.464C680.57 95.816 680.074 96.328 679.69 97C679.322 97.672 679.138 98.464 679.138 99.376C679.138 100.288 679.322 101.088 679.69 101.776C680.074 102.448 680.57 102.96 681.178 103.312C681.802 103.664 682.458 103.84 683.146 103.84C683.85 103.84 684.506 103.664 685.114 103.312C685.738 102.944 686.234 102.416 686.602 101.728C686.986 101.04 687.178 100.24 687.178 99.328ZM695.403 94.72C695.867 94.112 696.499 93.6 697.299 93.184C698.099 92.768 699.003 92.56 700.011 92.56C701.163 92.56 702.211 92.848 703.155 93.424C704.115 93.984 704.867 94.776 705.411 95.8C705.955 96.824 706.227 98 706.227 99.328C706.227 100.656 705.955 101.848 705.411 102.904C704.867 103.944 704.115 104.76 703.155 105.352C702.211 105.928 701.163 106.216 700.011 106.216C699.003 106.216 698.107 106.016 697.323 105.616C696.539 105.2 695.899 104.688 695.403 104.08V112.288H692.667V92.776H695.403V94.72ZM703.443 99.328C703.443 98.416 703.251 97.632 702.867 96.976C702.499 96.304 702.003 95.8 701.379 95.464C700.771 95.112 700.115 94.936 699.411 94.936C698.723 94.936 698.067 95.112 697.443 95.464C696.835 95.816 696.339 96.328 695.955 97C695.587 97.672 695.403 98.464 695.403 99.376C695.403 100.288 695.587 101.088 695.955 101.776C696.339 102.448 696.835 102.96 697.443 103.312C698.067 103.664 698.723 103.84 699.411 103.84C700.115 103.84 700.771 103.664 701.379 103.312C702.003 102.944 702.499 102.416 702.867 101.728C703.251 101.04 703.443 100.24 703.443 99.328ZM714.669 106.216C713.421 106.216 712.293 105.936 711.285 105.376C710.277 104.8 709.485 104 708.909 102.976C708.333 101.936 708.045 100.736 708.045 99.376C708.045 98.032 708.341 96.84 708.933 95.8C709.525 94.76 710.333 93.96 711.357 93.4C712.381 92.84 713.525 92.56 714.789 92.56C716.053 92.56 717.197 92.84 718.221 93.4C719.245 93.96 720.053 94.76 720.645 95.8C721.237 96.84 721.533 98.032 721.533 99.376C721.533 100.72 721.229 101.912 720.621 102.952C720.013 103.992 719.181 104.8 718.125 105.376C717.085 105.936 715.933 106.216 714.669 106.216ZM714.669 103.84C715.373 103.84 716.029 103.672 716.637 103.336C717.261 103 717.765 102.496 718.149 101.824C718.533 101.152 718.725 100.336 718.725 99.376C718.725 98.416 718.541 97.608 718.173 96.952C717.805 96.28 717.317 95.776 716.709 95.44C716.101 95.104 715.445 94.936 714.741 94.936C714.037 94.936 713.381 95.104 712.773 95.44C712.181 95.776 711.709 96.28 711.357 96.952C711.005 97.608 710.829 98.416 710.829 99.376C710.829 100.8 711.189 101.904 711.909 102.688C712.645 103.456 713.565 103.84 714.669 103.84ZM726.974 94.696C727.374 94.024 727.902 93.504 728.558 93.136C729.23 92.752 730.022 92.56 730.934 92.56V95.392H730.238C729.166 95.392 728.35 95.664 727.79 96.208C727.246 96.752 726.974 97.696 726.974 99.04V106H724.238V92.776H726.974V94.696ZM736.64 95.008V102.328C736.64 102.824 736.752 103.184 736.976 103.408C737.216 103.616 737.616 103.72 738.176 103.72H739.856V106H737.696C736.464 106 735.52 105.712 734.864 105.136C734.208 104.56 733.88 103.624 733.88 102.328V95.008H732.32V92.776H733.88V89.488H736.64V92.776H739.856V95.008H736.64Z" fill="#503217"/>
<path d="M883.116 89.32V91.552H876.036V96.472H881.556V98.704H876.036V106H873.3V89.32H883.116ZM897.772 99.064C897.772 99.56 897.74 100.008 897.676 100.408H887.572C887.652 101.464 888.044 102.312 888.748 102.952C889.452 103.592 890.316 103.912 891.34 103.912C892.812 103.912 893.852 103.296 894.46 102.064H897.412C897.012 103.28 896.284 104.28 895.228 105.064C894.188 105.832 892.892 106.216 891.34 106.216C890.076 106.216 888.94 105.936 887.932 105.376C886.94 104.8 886.156 104 885.58 102.976C885.02 101.936 884.74 100.736 884.74 99.376C884.74 98.016 885.012 96.824 885.556 95.8C886.116 94.76 886.892 93.96 887.884 93.4C888.892 92.84 890.044 92.56 891.34 92.56C892.588 92.56 893.7 92.832 894.676 93.376C895.652 93.92 896.412 94.688 896.956 95.68C897.5 96.656 897.772 97.784 897.772 99.064ZM894.916 98.2C894.9 97.192 894.54 96.384 893.836 95.776C893.132 95.168 892.26 94.864 891.22 94.864C890.276 94.864 889.468 95.168 888.796 95.776C888.124 96.368 887.724 97.176 887.596 98.2H894.916ZM906.128 99.304L910.4 106H907.304L904.448 101.512L901.76 106H898.904L903.176 99.496L898.904 92.776H902L904.856 97.264L907.544 92.776H910.4L906.128 99.304ZM913.833 91.024C913.337 91.024 912.921 90.856 912.585 90.52C912.249 90.184 912.081 89.768 912.081 89.272C912.081 88.776 912.249 88.36 912.585 88.024C912.921 87.688 913.337 87.52 913.833 87.52C914.313 87.52 914.721 87.688 915.057 88.024C915.393 88.36 915.561 88.776 915.561 89.272C915.561 89.768 915.393 90.184 915.057 90.52C914.721 90.856 914.313 91.024 913.833 91.024ZM915.177 92.776V106H912.441V92.776H915.177ZM921.505 94.744C921.969 94.104 922.601 93.584 923.401 93.184C924.217 92.768 925.121 92.56 926.113 92.56C927.281 92.56 928.337 92.84 929.281 93.4C930.225 93.96 930.969 94.76 931.513 95.8C932.057 96.824 932.329 98 932.329 99.328C932.329 100.656 932.057 101.848 931.513 102.904C930.969 103.944 930.217 104.76 929.257 105.352C928.313 105.928 927.265 106.216 926.113 106.216C925.089 106.216 924.177 106.016 923.377 105.616C922.593 105.216 921.969 104.704 921.505 104.08V106H918.769V88.24H921.505V94.744ZM929.545 99.328C929.545 98.416 929.353 97.632 928.969 96.976C928.601 96.304 928.105 95.8 927.481 95.464C926.873 95.112 926.217 94.936 925.513 94.936C924.825 94.936 924.169 95.112 923.545 95.464C922.937 95.816 922.441 96.328 922.057 97C921.689 97.672 921.505 98.464 921.505 99.376C921.505 100.288 921.689 101.088 922.057 101.776C922.441 102.448 922.937 102.96 923.545 103.312C924.169 103.664 924.825 103.84 925.513 103.84C926.217 103.84 926.873 103.664 927.481 103.312C928.105 102.944 928.601 102.416 928.969 101.728C929.353 101.04 929.545 100.24 929.545 99.328ZM937.77 88.24V106H935.034V88.24H937.77ZM953.483 99.064C953.483 99.56 953.451 100.008 953.387 100.408H943.283C943.363 101.464 943.755 102.312 944.459 102.952C945.163 103.592 946.027 103.912 947.051 103.912C948.523 103.912 949.563 103.296 950.171 102.064H953.122C952.723 103.28 951.995 104.28 950.939 105.064C949.899 105.832 948.603 106.216 947.051 106.216C945.787 106.216 944.651 105.936 943.643 105.376C942.651 104.8 941.867 104 941.291 102.976C940.731 101.936 940.451 100.736 940.451 99.376C940.451 98.016 940.723 96.824 941.267 95.8C941.827 94.76 942.603 93.96 943.595 93.4C944.603 92.84 945.755 92.56 947.051 92.56C948.299 92.56 949.411 92.832 950.387 93.376C951.363 93.92 952.123 94.688 952.667 95.68C953.211 96.656 953.483 97.784 953.483 99.064ZM950.627 98.2C950.611 97.192 950.251 96.384 949.547 95.776C948.843 95.168 947.971 94.864 946.931 94.864C945.987 94.864 945.179 95.168 944.507 95.776C943.835 96.368 943.435 97.176 943.307 98.2H950.627ZM965.145 94.72C965.609 94.112 966.241 93.6 967.041 93.184C967.841 92.768 968.745 92.56 969.753 92.56C970.905 92.56 971.953 92.848 972.897 93.424C973.857 93.984 974.609 94.776 975.153 95.8C975.697 96.824 975.969 98 975.969 99.328C975.969 100.656 975.697 101.848 975.153 102.904C974.609 103.944 973.857 104.76 972.897 105.352C971.953 105.928 970.905 106.216 969.753 106.216C968.745 106.216 967.849 106.016 967.065 105.616C966.281 105.2 965.641 104.688 965.145 104.08V112.288H962.409V92.776H965.145V94.72ZM973.185 99.328C973.185 98.416 972.993 97.632 972.609 96.976C972.241 96.304 971.745 95.8 971.121 95.464C970.513 95.112 969.857 94.936 969.153 94.936C968.465 94.936 967.809 95.112 967.185 95.464C966.577 95.816 966.081 96.328 965.697 97C965.329 97.672 965.145 98.464 965.145 99.376C965.145 100.288 965.329 101.088 965.697 101.776C966.081 102.448 966.577 102.96 967.185 103.312C967.809 103.664 968.465 103.84 969.153 103.84C969.857 103.84 970.513 103.664 971.121 103.312C971.745 102.944 972.241 102.416 972.609 101.728C972.993 101.04 973.185 100.24 973.185 99.328ZM977.763 99.328C977.763 98 978.035 96.824 978.579 95.8C979.139 94.776 979.891 93.984 980.835 93.424C981.795 92.848 982.851 92.56 984.003 92.56C985.043 92.56 985.947 92.768 986.715 93.184C987.499 93.584 988.123 94.088 988.587 94.696V92.776H991.347V106H988.587V104.032C988.123 104.656 987.491 105.176 986.691 105.592C985.891 106.008 984.979 106.216 983.955 106.216C982.819 106.216 981.779 105.928 980.835 105.352C979.891 104.76 979.139 103.944 978.579 102.904C978.035 101.848 977.763 100.656 977.763 99.328ZM988.587 99.376C988.587 98.464 988.395 97.672 988.011 97C987.643 96.328 987.155 95.816 986.547 95.464C985.939 95.112 985.283 94.936 984.579 94.936C983.875 94.936 983.219 95.112 982.611 95.464C982.003 95.8 981.507 96.304 981.123 96.976C980.755 97.632 980.571 98.416 980.571 99.328C980.571 100.24 980.755 101.04 981.123 101.728C981.507 102.416 982.003 102.944 982.611 103.312C983.235 103.664 983.891 103.84 984.579 103.84C985.283 103.84 985.939 103.664 986.547 103.312C987.155 102.96 987.643 102.448 988.011 101.776C988.395 101.088 988.587 100.288 988.587 99.376ZM1006.84 92.776L998.733 112.216H995.901L998.589 105.784L993.381 92.776H996.429L1000.15 102.856L1004.01 92.776H1006.84ZM1024.92 92.56C1025.96 92.56 1026.89 92.776 1027.7 93.208C1028.53 93.64 1029.18 94.28 1029.65 95.128C1030.13 95.976 1030.37 97 1030.37 98.2V106H1027.65V98.608C1027.65 97.424 1027.36 96.52 1026.77 95.896C1026.17 95.256 1025.37 94.936 1024.34 94.936C1023.32 94.936 1022.5 95.256 1021.89 95.896C1021.3 96.52 1021.01 97.424 1021.01 98.608V106H1018.29V98.608C1018.29 97.424 1018 96.52 1017.41 95.896C1016.81 95.256 1016.01 94.936 1014.98 94.936C1013.96 94.936 1013.14 95.256 1012.53 95.896C1011.94 96.52 1011.65 97.424 1011.65 98.608V106H1008.91V92.776H1011.65V94.288C1012.09 93.744 1012.66 93.32 1013.35 93.016C1014.04 92.712 1014.77 92.56 1015.56 92.56C1016.61 92.56 1017.56 92.784 1018.39 93.232C1019.22 93.68 1019.86 94.328 1020.31 95.176C1020.71 94.376 1021.33 93.744 1022.18 93.28C1023.03 92.8 1023.94 92.56 1024.92 92.56ZM1045.97 99.064C1045.97 99.56 1045.93 100.008 1045.87 100.408H1035.77C1035.85 101.464 1036.24 102.312 1036.94 102.952C1037.65 103.592 1038.51 103.912 1039.53 103.912C1041.01 103.912 1042.05 103.296 1042.65 102.064H1045.61C1045.21 103.28 1044.48 104.28 1043.42 105.064C1042.38 105.832 1041.09 106.216 1039.53 106.216C1038.27 106.216 1037.13 105.936 1036.13 105.376C1035.13 104.8 1034.35 104 1033.77 102.976C1033.21 101.936 1032.93 100.736 1032.93 99.376C1032.93 98.016 1033.21 96.824 1033.75 95.8C1034.31 94.76 1035.09 93.96 1036.08 93.4C1037.09 92.84 1038.24 92.56 1039.53 92.56C1040.78 92.56 1041.89 92.832 1042.87 93.376C1043.85 93.92 1044.61 94.688 1045.15 95.68C1045.69 96.656 1045.97 97.784 1045.97 99.064ZM1043.11 98.2C1043.09 97.192 1042.73 96.384 1042.03 95.776C1041.33 95.168 1040.45 94.864 1039.41 94.864C1038.47 94.864 1037.66 95.168 1036.99 95.776C1036.32 96.368 1035.92 97.176 1035.79 98.2H1043.11ZM1055.33 92.56C1056.37 92.56 1057.3 92.776 1058.12 93.208C1058.95 93.64 1059.6 94.28 1060.06 95.128C1060.52 95.976 1060.76 97 1060.76 98.2V106H1058.04V98.608C1058.04 97.424 1057.75 96.52 1057.16 95.896C1056.56 95.256 1055.76 94.936 1054.73 94.936C1053.71 94.936 1052.89 95.256 1052.28 95.896C1051.69 96.52 1051.4 97.424 1051.4 98.608V106H1048.66V92.776H1051.4V94.288C1051.84 93.744 1052.41 93.32 1053.1 93.016C1053.8 92.712 1054.55 92.56 1055.33 92.56ZM1067.44 95.008V102.328C1067.44 102.824 1067.55 103.184 1067.77 103.408C1068.01 103.616 1068.41 103.72 1068.97 103.72H1070.65V106H1068.49C1067.26 106 1066.32 105.712 1065.66 105.136C1065.01 104.56 1064.68 103.624 1064.68 102.328V95.008H1063.12V92.776H1064.68V89.488H1067.44V92.776H1070.65V95.008H1067.44Z" fill="#503217"/>
<path d="M62.25 10.417H78.4417C79.9416 10.417 80.6915 10.417 81.2172 10.799C81.387 10.9223 81.5363 11.0716 81.6597 11.2414C82.0417 11.7672 82.0417 12.5171 82.0417 14.017V20.8337V18.1837C82.0417 16.6838 82.0417 15.9338 82.4236 15.4081C82.547 15.2383 82.6963 15.089 82.8661 14.9656C83.3918 14.5837 84.1418 14.5837 85.6417 14.5837H92.3167C93.2761 14.5837 93.7558 14.5837 94.1626 14.7766C94.2962 14.8399 94.4222 14.9178 94.5386 15.0089C94.8931 15.2865 95.1076 15.7156 95.5367 16.5737L99.3699 24.2402C99.538 24.5763 99.622 24.7444 99.6731 24.9232C99.6901 24.9827 99.7043 25.0429 99.7157 25.1037C99.75 25.2865 99.75 25.4744 99.75 25.8502V31.817C99.75 33.3169 99.75 34.0668 99.368 34.5926C99.2447 34.7624 99.0954 34.9117 98.9256 35.035C98.3998 35.417 97.6499 35.417 96.15 35.417H95.5833M62.25 35.417H66.4167M74.75 35.417C74.75 37.7182 72.8845 39.5837 70.5833 39.5837C68.2821 39.5837 66.4167 37.7182 66.4167 35.417M74.75 35.417C74.75 33.1158 72.8845 31.2503 70.5833 31.2503C68.2821 31.2503 66.4167 33.1158 66.4167 35.417M74.75 35.417H87.25M95.5833 35.417C95.5833 37.7182 93.7179 39.5837 91.4167 39.5837C89.1155 39.5837 87.25 37.7182 87.25 35.417M95.5833 35.417C95.5833 33.1158 93.7179 31.2503 91.4167 31.2503C89.1155 31.2503 87.25 33.1158 87.25 35.417M62.25 17.7087H76.8333M62.25 25.0003H72.6667M87.25 19.792H91.4167L94.0208 25.0003H87.25V19.792Z" stroke="#503217" stroke-width="2.5" stroke-linecap="round" stroke-linejoin="round"/>
<path d="M363 6.25C373.355 6.25 381.75 14.6447 381.75 25C381.75 32.1137 377.788 38.3022 371.951 41.4795M379.317 42.4699H371.951V41.4795M371.951 41.4795V35.1042M363 43.75C352.645 43.75 344.25 35.3553 344.25 25C344.25 17.8863 348.212 11.6978 354.049 8.52046M346.683 7.53014L354.049 7.53014V8.52046M354.049 8.52046L354.049 14.8958M359.037 29.6875C359.527 31.053 360.85 32.0312 362.405 32.0312H363M366.963 20.3125C366.473 18.947 365.15 17.9687 363.595 17.9687H363M363 17.9687H362.405C360.432 17.9687 358.833 19.5427 358.833 21.4844C358.833 23.426 360.432 25 362.405 25H363.595C365.568 25 367.167 26.574 367.167 28.5156C367.167 30.4573 365.568 32.0312 363.595 32.0312H363M363 17.9687V15.625M363 32.0312V34.375" stroke="#503217" stroke-width="2.5" stroke-linecap="round" stroke-linejoin="round"/>
<path d="M634.25 25C634.25 24.2958 634.289 23.6007 634.364 22.9167M634.25 25V31.8167C634.25 33.3166 634.25 34.0665 634.632 34.5922C634.755 34.762 634.905 34.9113 635.074 35.0347C635.6 35.4167 636.35 35.4167 637.85 35.4167H638.417M634.25 25V22.9167H634.364M634.364 22.9167C635.401 13.5418 643.349 6.25 653 6.25C662.651 6.25 670.599 13.5418 671.636 22.9167M634.364 22.9167H641.067C642.567 22.9167 643.317 22.9167 643.842 23.2986C644.012 23.422 644.161 23.5713 644.285 23.7411C644.667 24.2668 644.667 25.0168 644.667 26.5167V31.8167C644.667 33.3166 644.667 34.0665 644.285 34.5922C644.161 34.762 644.012 34.9113 643.842 35.0347C643.317 35.4167 642.567 35.4167 641.067 35.4167H638.417M671.636 22.9167C671.711 23.6007 671.75 24.2958 671.75 25M671.636 22.9167H664.933C663.433 22.9167 662.683 22.9167 662.158 23.2986C661.988 23.422 661.839 23.5713 661.715 23.7411C661.333 24.2668 661.333 25.0168 661.333 26.5167V31.8167C661.333 33.3166 661.333 34.0665 661.715 34.5922C661.839 34.762 661.988 34.9113 662.158 35.0347C662.683 35.4167 663.433 35.4167 664.933 35.4167H668.15C669.65 35.4167 670.4 35.4167 670.926 35.0347C671.095 34.9113 671.245 34.762 671.368 34.5922C671.75 34.0665 671.75 33.3166 671.75 31.8167V25M671.636 22.9167H671.75V25M638.417 35.4167V37.025C638.417 38.5249 638.417 39.2748 638.799 39.8006C638.922 39.9704 639.071 40.1197 639.241 40.243C639.767 40.625 640.517 40.625 642.017 40.625H648.833M648.833 40.625C648.833 42.3509 650.232 43.75 651.958 43.75H655.083C656.809 43.75 658.208 42.3509 658.208 40.625C658.208 38.8991 656.809 37.5 655.083 37.5H651.958C650.232 37.5 648.833 38.8991 648.833 40.625Z" stroke="#503217" stroke-width="2.5" stroke-linejoin="round"/>
<path d="M988.062 25C988.062 25.8629 987.363 26.5625 986.5 26.5625C985.637 26.5625 984.938 25.8629 984.938 25C984.938 24.1371 985.637 23.4375 986.5 23.4375C987.363 23.4375 988.062 24.1371 988.062 25Z" fill="#503217"/>
<path d="M955.292 18.7497H992.708M977.125 24.9997H981.292M962.45 41.6663H985.55C988.55 41.6663 990.05 41.6663 991.101 40.9024C991.441 40.6557 991.739 40.3571 991.986 40.0175C992.75 38.966 992.75 37.4661 992.75 34.4663V15.533C992.75 12.5332 992.75 11.0333 991.986 9.98187C991.739 9.64229 991.441 9.34366 991.101 9.09694C990.05 8.33301 988.55 8.33301 985.55 8.33301H962.45C959.45 8.33301 957.95 8.33301 956.899 9.09694C956.559 9.34366 956.261 9.64229 956.014 9.98187C955.25 11.0333 955.25 12.5332 955.25 15.533V34.4663C955.25 37.4661 955.25 38.966 956.014 40.0175C956.261 40.3571 956.559 40.6557 956.899 40.9024C957.95 41.6663 959.45 41.6663 962.45 41.6663Z" stroke="#503217" stroke-width="2.5" stroke-linecap="round" stroke-linejoin="round"/>
</svg>
