<svg width="158" height="48" viewBox="0 0 158 48" fill="none" xmlns="http://www.w3.org/2000/svg">
<rect x="0.00195312" width="158" height="48" rx="10" fill="#503217"/>
<path d="M37.002 20V20C37.002 17.2386 34.7634 15 32.002 15V15C29.2405 15 27.002 17.2386 27.002 20V20M29.8711 33L34.1329 33C35.6981 33 36.4808 33 37.1441 32.7898C38.2547 32.4379 39.1855 31.669 39.7408 30.6449C40.0725 30.0332 40.2203 29.2646 40.5159 27.7275V27.7275C40.933 25.5585 41.1416 24.4741 40.9633 23.6003C40.6639 22.1332 39.6544 20.9111 38.2703 20.3401C37.4459 20 36.3416 20 34.1329 20L29.8711 20C27.6623 20 26.558 20 25.7336 20.3401C24.3495 20.9111 23.34 22.1332 23.0407 23.6003C22.8623 24.4741 23.0709 25.5585 23.488 27.7275V27.7275C23.7836 29.2646 23.9314 30.0332 24.2631 30.6449C24.8184 31.669 25.7492 32.4379 26.8598 32.7898C27.5232 33 28.3058 33 29.8711 33Z" stroke="#EEEDE7" stroke-width="1.5" stroke-linecap="round" stroke-linejoin="round"/>
<path d="M63.0371 28.0635C63.0371 29.1826 62.6328 30.0645 61.8242 30.709C61.0156 31.3535 59.8906 31.6758 58.4492 31.6758C56.9258 31.6758 55.748 31.4736 54.916 31.0693V29.5225C55.4609 29.7568 56.0557 29.9414 56.7002 30.0762C57.3506 30.2109 57.957 30.2783 58.5195 30.2783C59.4805 30.2783 60.2041 30.0938 60.6904 29.7246C61.1768 29.3555 61.4199 28.8486 61.4199 28.2041C61.4199 27.7764 61.332 27.4248 61.1562 27.1494C60.9805 26.874 60.6846 26.6162 60.2686 26.376C59.8584 26.1357 59.2344 25.8633 58.3965 25.5586C57.207 25.125 56.3574 24.6152 55.8477 24.0293C55.3379 23.4375 55.083 22.6758 55.083 21.7441C55.083 20.7422 55.458 19.9453 56.208 19.3535C56.9639 18.7617 57.957 18.4658 59.1875 18.4658C60.4707 18.4658 61.6514 18.7061 62.7295 19.1865L62.2285 20.5752C61.127 20.1182 60.1016 19.8896 59.1523 19.8896C58.3906 19.8896 57.793 20.0537 57.3594 20.3818C56.9316 20.71 56.7178 21.1699 56.7178 21.7617C56.7178 22.1836 56.7998 22.5352 56.9639 22.8164C57.1338 23.0918 57.4033 23.3438 57.7725 23.5723C58.1475 23.8008 58.7334 24.0615 59.5303 24.3545C60.4854 24.7061 61.1973 25.0488 61.666 25.3828C62.1348 25.7109 62.4805 26.0918 62.7031 26.5254C62.9258 26.9531 63.0371 27.4658 63.0371 28.0635ZM71.9844 31.5V25.3301C71.9844 24.5449 71.8086 23.9619 71.457 23.5811C71.1113 23.1943 70.5664 23.001 69.8223 23.001C68.8438 23.001 68.126 23.2734 67.6689 23.8184C67.2178 24.3633 66.9922 25.2627 66.9922 26.5166V31.5H65.4102V17.8242H66.9922V21.832C66.9922 22.3594 66.9629 22.8105 66.9043 23.1855H67.0098C67.2969 22.7168 67.7041 22.3506 68.2314 22.0869C68.7588 21.8232 69.3535 21.6914 70.0156 21.6914C71.1875 21.6914 72.0693 21.9727 72.6611 22.5352C73.2529 23.0918 73.5488 23.9854 73.5488 25.2158V31.5H71.9844ZM84.9219 26.6572C84.9219 28.2334 84.5234 29.4639 83.7266 30.3486C82.9297 31.2334 81.8281 31.6758 80.4219 31.6758C79.5488 31.6758 78.7754 31.4736 78.1016 31.0693C77.4277 30.6592 76.9092 30.0732 76.5459 29.3115C76.1826 28.5498 76.001 27.665 76.001 26.6572C76.001 25.0869 76.3936 23.8652 77.1787 22.9922C77.9639 22.1133 79.0654 21.6738 80.4834 21.6738C81.8428 21.6738 82.9209 22.1221 83.7178 23.0186C84.5205 23.9092 84.9219 25.1221 84.9219 26.6572ZM77.6357 26.6572C77.6357 27.8701 77.873 28.793 78.3477 29.4258C78.8281 30.0527 79.5342 30.3662 80.4658 30.3662C81.3857 30.3662 82.0859 30.0527 82.5664 29.4258C83.0469 28.793 83.2871 27.8701 83.2871 26.6572C83.2871 25.4443 83.0439 24.5332 82.5576 23.9238C82.0771 23.3086 81.3711 23.001 80.4395 23.001C78.5703 23.001 77.6357 24.2197 77.6357 26.6572ZM92.0059 31.6758C90.7109 31.6758 89.7148 31.21 89.0176 30.2783H88.9121L88.9473 30.6387C88.9941 31.0957 89.0176 31.5029 89.0176 31.8604V35.8242H87.4355V21.8496H88.7363L88.9473 23.168H89.0176C89.3926 22.6406 89.8262 22.2598 90.3184 22.0254C90.8105 21.791 91.3789 21.6738 92.0234 21.6738C93.2773 21.6738 94.25 22.1104 94.9414 22.9834C95.6387 23.8506 95.9873 25.0752 95.9873 26.6572C95.9873 28.2334 95.6387 29.4639 94.9414 30.3486C94.2441 31.2334 93.2656 31.6758 92.0059 31.6758ZM91.7422 23.001C90.7871 23.001 90.0957 23.2705 89.668 23.8096C89.2461 24.3486 89.0293 25.1953 89.0176 26.3496V26.6572C89.0176 27.9639 89.2344 28.9102 89.668 29.4961C90.1016 30.0762 90.8047 30.3662 91.7773 30.3662C92.5859 30.3662 93.2158 30.0381 93.667 29.3818C94.124 28.7256 94.3525 27.8115 94.3525 26.6396C94.3525 25.4619 94.124 24.5625 93.667 23.9414C93.2158 23.3145 92.5742 23.001 91.7422 23.001ZM109.76 31.5V25.3301C109.76 24.5449 109.584 23.9619 109.232 23.5811C108.887 23.1943 108.342 23.001 107.598 23.001C106.607 23.001 105.887 23.2764 105.436 23.8271C104.99 24.3721 104.768 25.2627 104.768 26.499V31.5H103.186V21.8496H104.46L104.697 23.168H104.785C105.084 22.6934 105.503 22.3271 106.042 22.0693C106.581 21.8057 107.176 21.6738 107.826 21.6738C109.01 21.6738 109.889 21.9609 110.463 22.5352C111.037 23.1094 111.324 24.0029 111.324 25.2158V31.5H109.76ZM122.697 26.6572C122.697 28.2334 122.299 29.4639 121.502 30.3486C120.705 31.2334 119.604 31.6758 118.197 31.6758C117.324 31.6758 116.551 31.4736 115.877 31.0693C115.203 30.6592 114.685 30.0732 114.321 29.3115C113.958 28.5498 113.776 27.665 113.776 26.6572C113.776 25.0869 114.169 23.8652 114.954 22.9922C115.739 22.1133 116.841 21.6738 118.259 21.6738C119.618 21.6738 120.696 22.1221 121.493 23.0186C122.296 23.9092 122.697 25.1221 122.697 26.6572ZM115.411 26.6572C115.411 27.8701 115.648 28.793 116.123 29.4258C116.604 30.0527 117.31 30.3662 118.241 30.3662C119.161 30.3662 119.861 30.0527 120.342 29.4258C120.822 28.793 121.062 27.8701 121.062 26.6572C121.062 25.4443 120.819 24.5332 120.333 23.9238C119.853 23.3086 119.146 23.001 118.215 23.001C116.346 23.001 115.411 24.2197 115.411 26.6572ZM132.919 31.5L131.267 26.0684C131.114 25.6172 130.892 24.7646 130.599 23.5107H130.528C130.282 24.6533 130.065 25.5117 129.878 26.0859L128.146 31.5H126.354L123.708 21.8496H125.343C125.952 24.2227 126.415 26.0273 126.731 27.2637C127.054 28.5 127.244 29.373 127.303 29.8828H127.373L127.496 29.3379C127.678 28.5 127.854 27.8174 128.023 27.29L129.737 21.8496H131.46L133.121 27.29C133.18 27.4951 133.241 27.7148 133.306 27.9492C133.376 28.1777 133.44 28.4062 133.499 28.6348C133.558 28.8574 133.61 29.0771 133.657 29.2939C133.704 29.5049 133.739 29.6953 133.763 29.8652H133.842C133.895 29.4199 134.108 28.4648 134.483 27L135.837 21.8496H137.454L134.773 31.5H132.919Z" fill="#F2F2F2"/>
</svg>
