<svg width="16" height="15" viewBox="0 0 16 15" fill="none" xmlns="http://www.w3.org/2000/svg">
<path d="M14.7358 10.8072C14.696 10.6571 14.6252 10.5169 14.5279 10.3958C14.4306 10.2747 14.309 10.1753 14.171 10.1041L11.2717 8.60177C11.0378 8.47774 10.7671 8.44193 10.5089 8.50087C10.2508 8.55982 10.0224 8.70959 9.86548 8.92287L9.39673 9.56505C9.37265 9.59842 9.3372 9.62184 9.29706 9.63091C9.25692 9.63997 9.21485 9.63406 9.17876 9.61427C8.48941 9.222 7.8583 8.73525 7.30376 8.16818C6.73671 7.61362 6.24997 6.98251 5.85767 6.29318C5.83789 6.25709 5.83197 6.21502 5.84103 6.17488C5.8501 6.13474 5.87352 6.09929 5.90689 6.07521L6.54673 5.60646C6.76001 5.44954 6.90978 5.22118 6.96872 4.96303C7.02767 4.70489 6.99186 4.43415 6.86783 4.20021L5.37486 1.30334C5.30316 1.16507 5.20313 1.04347 5.08129 0.946445C4.95945 0.849423 4.81854 0.779164 4.66773 0.740246C4.51692 0.701327 4.3596 0.694623 4.20603 0.72057C4.05246 0.746517 3.90607 0.804533 3.77642 0.890837L1.95533 2.10959C1.69962 2.27985 1.49314 2.51432 1.35657 2.78951C1.22001 3.06469 1.15815 3.37094 1.1772 3.67756C1.20131 4.19597 1.27111 4.71125 1.3858 5.2174C1.88033 7.12521 3.0733 9.08693 4.73033 10.7463C6.38736 12.4057 8.35142 13.594 10.2592 14.0838C10.7654 14.1985 11.2807 14.2683 11.7991 14.2924L11.9163 14.2924C12.2023 14.2918 12.4838 14.2212 12.7363 14.0868C12.9887 13.9524 13.2045 13.7582 13.3647 13.5213L14.5788 11.7002C14.6664 11.5708 14.7257 11.4244 14.7527 11.2705C14.7798 11.1166 14.774 10.9587 14.7358 10.8072ZM13.7983 11.1776L12.5913 13.001C12.5111 13.1193 12.4015 13.2146 12.2733 13.2774C12.145 13.3403 12.0026 13.3687 11.86 13.3596C11.4002 13.3383 10.9431 13.278 10.4936 13.1791C8.74517 12.7244 6.9358 11.6252 5.39595 10.0783C3.85611 8.53146 2.7522 6.72912 2.29752 4.98068C2.19784 4.53124 2.13668 4.07411 2.1147 3.61427C2.10534 3.47201 2.13354 3.32978 2.19648 3.20184C2.25941 3.07391 2.35488 2.96477 2.4733 2.88537L4.29439 1.67131C4.32211 1.65274 4.35478 1.64295 4.38814 1.64318L4.43267 1.64318C4.45575 1.6492 4.47729 1.66003 4.49587 1.67498C4.51446 1.68993 4.52966 1.70865 4.54048 1.7299L6.04048 4.62912C6.05913 4.66507 6.06441 4.70647 6.0554 4.74595C6.04639 4.78543 6.02366 4.82044 5.99126 4.84474L5.35142 5.31349C5.13445 5.47491 4.98412 5.71022 4.92885 5.97494C4.87357 6.23965 4.91718 6.51545 5.05142 6.75021C5.48522 7.50848 6.02152 8.20331 6.64517 8.81505C7.25687 9.43874 7.95171 9.97505 8.71001 10.4088C8.94477 10.543 9.22057 10.5867 9.48529 10.5314C9.75001 10.4761 9.98531 10.3258 10.1467 10.1088L10.6155 9.46661C10.6398 9.43422 10.6748 9.41149 10.7143 9.40248C10.7538 9.39347 10.7952 9.39875 10.8311 9.4174L13.7303 10.9174C13.7515 10.9285 13.7702 10.9439 13.7851 10.9627C13.8 10.9815 13.8107 11.0032 13.8167 11.0264C13.8227 11.0496 13.8237 11.0738 13.8197 11.0974C13.8157 11.121 13.8068 11.1435 13.7936 11.1635L13.7983 11.1776Z" fill="#503217"/>
</svg>
