<svg width="31" height="31" viewBox="0 0 31 31" fill="none" xmlns="http://www.w3.org/2000/svg">
<rect x="0.371094" width="30.3529" height="30.3529" rx="6" fill="#503217"/>
<path d="M21.8199 10.8669C21.3292 11.0795 20.8221 11.2268 20.2823 11.2922C20.8385 10.965 21.2637 10.4416 21.46 9.8037C20.9366 10.1145 20.3641 10.3271 19.7589 10.458C19.2682 9.93456 18.5649 9.60742 17.7961 9.60742C16.3076 9.60742 15.1136 10.8178 15.1136 12.2899C15.1136 12.5026 15.1299 12.6989 15.179 12.8952C12.9544 12.797 10.9916 11.7175 9.66672 10.0981C8.71802 11.7992 9.78121 13.2059 10.4846 13.6803C10.0593 13.6803 9.634 13.5494 9.27415 13.3531C9.27415 14.678 10.2065 15.774 11.4169 16.0193C11.1552 16.1011 10.5663 16.1502 10.2065 16.0684C10.55 17.1316 11.5478 17.9167 12.7091 17.9331C11.7931 18.6528 10.4518 19.2253 8.73438 19.0453C9.92843 19.8141 11.3351 20.2557 12.8563 20.2557C17.7961 20.2557 20.4786 16.1665 20.4786 12.6334C20.4786 12.5189 20.4786 12.4044 20.4622 12.2899C21.0184 11.881 21.4764 11.4067 21.8199 10.8669Z" fill="#F2F2F2"/>
</svg>
