<svg width="40" height="40" viewBox="0 0 40 40" fill="none" xmlns="http://www.w3.org/2000/svg">
<path d="M1.25 20C1.25 19.2958 1.28882 18.6007 1.36443 17.9167M1.25 20V26.8167C1.25 28.3166 1.25 29.0665 1.63197 29.5922C1.75533 29.762 1.90464 29.9113 2.07443 30.0347C2.60016 30.4167 3.35011 30.4167 4.85 30.4167H5.41667M1.25 20V17.9167H1.36443M1.36443 17.9167C2.40078 8.54177 10.3488 1.25 20 1.25C29.6512 1.25 37.5992 8.54177 38.6356 17.9167M1.36443 17.9167H8.06667C9.56656 17.9167 10.3165 17.9167 10.8422 18.2986C11.012 18.422 11.1613 18.5713 11.2847 18.7411C11.6667 19.2668 11.6667 20.0168 11.6667 21.5167V26.8167C11.6667 28.3166 11.6667 29.0665 11.2847 29.5922C11.1613 29.762 11.012 29.9113 10.8422 30.0347C10.3165 30.4167 9.56656 30.4167 8.06667 30.4167H5.41667M38.6356 17.9167C38.7112 18.6007 38.75 19.2958 38.75 20M38.6356 17.9167H31.9333C30.4334 17.9167 29.6835 17.9167 29.1578 18.2986C28.988 18.422 28.8387 18.5713 28.7153 18.7411C28.3333 19.2668 28.3333 20.0168 28.3333 21.5167V26.8167C28.3333 28.3166 28.3333 29.0665 28.7153 29.5922C28.8387 29.762 28.988 29.9113 29.1578 30.0347C29.6835 30.4167 30.4334 30.4167 31.9333 30.4167H35.15C36.6499 30.4167 37.3998 30.4167 37.9256 30.0347C38.0954 29.9113 38.2447 29.762 38.368 29.5922C38.75 29.0665 38.75 28.3166 38.75 26.8167V20M38.6356 17.9167H38.75V20M5.41667 30.4167V32.025C5.41667 33.5249 5.41667 34.2748 5.79863 34.8006C5.92199 34.9704 6.07131 35.1197 6.2411 35.243C6.76683 35.625 7.51677 35.625 9.01667 35.625H15.8333M15.8333 35.625C15.8333 37.3509 17.2324 38.75 18.9583 38.75H22.0833C23.8092 38.75 25.2083 37.3509 25.2083 35.625C25.2083 33.8991 23.8092 32.5 22.0833 32.5H18.9583C17.2324 32.5 15.8333 33.8991 15.8333 35.625Z" stroke="#503217" stroke-width="2.5" stroke-linejoin="round"/>
</svg>
