<svg width="20" height="14" viewBox="0 0 20 14" fill="none" xmlns="http://www.w3.org/2000/svg">
<path d="M1.5 0.25C1.08579 0.25 0.75 0.585786 0.75 1C0.75 1.41421 1.08579 1.75 1.5 1.75V0.25ZM16.959 10.8703L16.2918 10.5277L16.959 10.8703ZM6.5 3.75H16.0873V2.25H6.5V3.75ZM18.0889 7.02771L16.2918 10.5277L17.6262 11.2128L19.4233 7.71284L18.0889 7.02771ZM14.2903 11.75H6.5V13.25H14.2903V11.75ZM4.25 9.5V9H2.75V9.5H4.25ZM4.25 9V6H2.75V9H4.25ZM4.25 9V3H2.75V9H4.25ZM6.5 11.75C5.25736 11.75 4.25 10.7426 4.25 9.5H2.75C2.75 11.5711 4.42893 13.25 6.5 13.25V11.75ZM16.2918 10.5277C15.9065 11.2781 15.1338 11.75 14.2903 11.75V13.25C15.6962 13.25 16.984 12.4636 17.6262 11.2128L16.2918 10.5277ZM16.0873 3.75C17.7705 3.75 18.8577 5.5304 18.0889 7.02771L19.4233 7.71284C20.7046 5.21733 18.8926 2.25 16.0873 2.25V3.75ZM4.25 3C4.25 1.48122 3.01878 0.25 1.5 0.25V1.75C2.19036 1.75 2.75 2.30964 2.75 3H4.25ZM6.5 2.25C4.42893 2.25 2.75 3.92893 2.75 6H4.25C4.25 4.75736 5.25736 3.75 6.5 3.75V2.25Z" fill="#EEEDE7"/>
</svg>
